<svg width="359" height="747" viewBox="0 0 359 747" fill="none" xmlns="http://www.w3.org/2000/svg">
<path d="M14.1743 67.4262C13.4045 66.0929 14.3668 64.4262 15.9064 64.4262L27.8308 64.4262C29.3704 64.4262 30.3326 66.0929 29.5628 67.4262L23.6006 77.7531C22.8308 79.0864 20.9063 79.0864 20.1365 77.7531L14.1743 67.4262Z" fill="#3FDBB7"/>
<path d="M177.77 704.725C177 703.392 177.962 701.725 179.502 701.725L190.025 701.725C191.564 701.725 192.526 703.392 191.757 704.725L186.495 713.838C185.725 715.172 183.801 715.172 183.031 713.838L177.77 704.725Z" fill="#D67F41"/>
<path d="M325.693 449.592C324.923 448.259 325.885 446.592 327.425 446.592L337.681 446.592C339.221 446.592 340.183 448.259 339.413 449.592L334.285 458.474C333.515 459.808 331.591 459.808 330.821 458.474L325.693 449.592Z" fill="#3BBBA6"/>
<circle cx="341" cy="5" r="5" fill="#D13C9D"/>
<circle cx="163" cy="70" r="5" fill="#3975D2"/>
<circle cx="310" cy="742" r="5" fill="#3A6FC9"/>
<circle cx="60" cy="693" r="5" fill="#4DD448"/>
<circle cx="15" cy="504" r="5" fill="#E1C04A"/>
<rect x="341" y="660.5" width="13" height="13" transform="rotate(-30 341 660.5)" fill="#B84393"/>
<rect x="0.914062" y="268.351" width="13" height="13.3437" transform="rotate(-30 0.914062 268.351)" fill="#E0C456"/>
<rect x="305" y="185.5" width="13" height="13.3437" transform="rotate(-30 305 185.5)" fill="#D48042"/>
</svg>
