<svg width="190" height="247" viewBox="0 0 190 247" fill="none" xmlns="http://www.w3.org/2000/svg">
<g clip-path="url(#clip0_8_3460)">
<path d="M189.378 158.814L155.47 134.028C155.47 134.028 136.046 100.979 132.754 79.8278C129.462 58.6766 114.647 21.0011 114.647 21.0011V1.17181C114.647 1.17181 97.5282 -5.43794 96.2114 12.7389C94.8945 30.9157 99.8327 54.3803 99.8327 54.3803C99.8327 54.3803 104.771 84.1242 93.5777 91.7254L52.7554 158.814C52.7554 158.814 91.9316 194.837 122.548 199.464L189.378 246.063V158.814Z" fill="#FFB8B8"/>
<path d="M13.0853 63.7992H11.9676C1.89665 63.7992 -3.76436 75.735 2.85312 83.356C4.98301 85.8089 8.22032 87.5071 13.0853 87.5943V63.7992Z" fill="#FFB8B8"/>
<path d="M13.0853 87.5942H11.9676C1.89665 87.5942 -3.76436 99.53 2.85312 107.151C4.98301 109.604 8.22032 111.302 13.0853 111.389V87.5942Z" fill="#FFB8B8"/>
<path d="M13.0853 111.389H11.9676C1.89665 111.389 -3.76436 123.325 2.85312 130.946C4.98301 133.399 8.22032 135.097 13.0853 135.185V111.389Z" fill="#FFB8B8"/>
<path d="M13.0853 135.184H11.9676C1.89665 135.184 -3.76436 147.12 2.85312 154.741C4.98301 157.194 8.22032 158.892 13.0853 158.98V135.184Z" fill="#FFB8B8"/>
<path d="M100.491 58.1177H99.5114V31.1735C99.5114 29.1256 99.1096 27.0978 98.3289 25.2057C97.5482 23.3137 96.404 21.5946 94.9614 20.1465C93.519 18.6984 91.8065 17.5497 89.9217 16.766C88.037 15.9823 86.017 15.579 83.977 15.579H27.1125C25.0725 15.579 23.0525 15.9823 21.1678 16.766C19.283 17.5497 17.5705 18.6984 16.128 20.1465C14.6855 21.5946 13.5413 23.3137 12.7606 25.2057C11.9799 27.0978 11.5781 29.1256 11.5781 31.1735V178.991C11.5781 181.039 11.9799 183.067 12.7606 184.959C13.5413 186.851 14.6855 188.57 16.128 190.018C17.5705 191.466 19.283 192.615 21.1678 193.399C23.0525 194.182 25.0725 194.586 27.1125 194.586H83.977C86.017 194.586 88.037 194.182 89.9217 193.399C91.8065 192.615 93.519 191.466 94.9614 190.018C96.404 188.57 97.5482 186.851 98.3289 184.959C99.1096 183.067 99.5114 181.039 99.5114 178.991V77.297H100.491V58.1177Z" fill="#3F3D56"/>
<path d="M96.2048 31.2825V178.882C96.2022 180.608 95.8189 182.312 95.0824 183.872C94.3458 185.432 93.2743 186.809 91.9448 187.904C91.6507 188.146 91.3441 188.372 91.0263 188.581C89.1244 189.854 86.889 190.531 84.6034 190.528H27.4653C26.5391 190.53 25.6161 190.419 24.7164 190.197C22.1915 189.579 19.9464 188.128 18.3412 186.076C16.7359 184.024 15.8636 181.491 15.8639 178.882V31.2825C15.8642 28.1938 17.0866 25.2316 19.2622 23.0476C21.4378 20.8635 24.3885 19.6364 27.4653 19.6361H34.3985C34.0571 20.4761 33.9268 21.3875 34.0191 22.29C34.1113 23.1925 34.4232 24.0584 34.9274 24.8114C35.4315 25.5643 36.1124 26.1812 36.91 26.6077C37.7077 27.0343 38.5976 27.2573 39.5013 27.2571H72.0769C72.9803 27.2562 73.8696 27.0325 74.6668 26.6057C75.464 26.179 76.1445 25.5623 76.6487 24.8097C77.1529 24.0572 77.4653 23.1919 77.5585 22.2898C77.6516 21.3877 77.5227 20.4765 77.1829 19.6361H84.6034C87.6802 19.6364 90.6309 20.8635 92.8065 23.0476C94.9821 25.2316 96.2045 28.1938 96.2048 31.2825Z" fill="#50ACFE"/>
<path d="M44.0436 130.863C44.0436 130.863 49.6524 146.503 45.29 155.262C40.9276 164.02 52.1451 174.03 52.1451 174.03C52.1451 174.03 81.4354 159.016 77.6962 151.508C73.957 144.001 67.7251 133.991 68.9714 127.735L44.0436 130.863Z" fill="#FFB8B8"/>
<path d="M54.9495 136.806C65.9633 136.806 74.8918 127.843 74.8918 116.787C74.8918 105.73 65.9633 96.7672 54.9495 96.7672C43.9357 96.7672 35.0072 105.73 35.0072 116.787C35.0072 127.843 43.9357 136.806 54.9495 136.806Z" fill="#FFB8B8"/>
<path d="M93.7225 187.035C93.1983 187.707 92.6021 188.319 91.9447 188.86C91.6507 189.102 91.3441 189.328 91.0262 189.537C89.1859 190.767 86.9802 191.153 84.6033 191.153H34.1351L35.0076 166.836L40.6173 154.324C41.8767 155.315 43.2245 156.188 44.6436 156.931C44.9794 157.113 45.3349 157.295 45.7069 157.473C50.9612 160.021 59.5503 162.262 67.8761 156.022C70.4966 154.059 73.0908 151.253 75.55 147.354L91.0954 156.201L91.9118 165.785L93.7225 187.035Z" fill="white"/>
<path d="M46.8987 144.961L46.1184 153.147L45.7069 157.473L45.0913 163.914L42.4609 191.484H27.4653C26.539 191.485 25.616 191.374 24.7164 191.153L18.8037 163.706L18.9749 163.594L46.8987 144.961Z" fill="#2F2E41"/>
<path d="M96.2047 150.586V179.837C96.2022 181.564 95.8189 183.268 95.0823 184.828C94.3458 186.388 93.2743 187.765 91.9448 188.86C91.6507 189.101 91.3441 189.328 91.0262 189.537C89.1243 190.81 86.889 191.487 84.6033 191.484H64.5378C64.9757 182.24 65.7493 173.218 66.6547 165.359C67.0432 162.011 67.4547 158.874 67.8761 156.022C69.2324 146.828 70.6875 140.585 71.7311 139.742L78.6314 144.313L96.2047 150.586Z" fill="#2F2E41"/>
<path d="M33.1376 186.229L32.42 191.484H27.4653C26.5391 191.485 25.6161 191.374 24.7164 191.153C22.1915 190.535 19.9464 189.084 18.3412 187.032C16.736 184.98 15.8636 182.446 15.8639 179.837V178.78L18.1815 163.706L18.9749 163.594L22.5436 163.082L33.1376 186.229Z" fill="#2F2E41"/>
<path d="M96.2048 154.4V179.837C96.2022 181.564 95.8189 183.268 95.0824 184.828C94.3458 186.388 93.2743 187.765 91.9448 188.86C91.6507 189.102 91.3441 189.328 91.0263 189.537L87.9778 176.218L91.9119 165.785L96.2048 154.4Z" fill="#2F2E41"/>
<path d="M73.9665 98.6802C70.9509 93.7642 66.2306 90.1416 60.7141 88.5097L56.6623 91.7637L58.2375 87.9683C56.9128 87.7654 55.572 87.6876 54.2328 87.7359L50.5873 92.4413L52.0961 87.8971C45.7969 88.7033 39.8082 92.1478 36.1781 97.4023C31.5381 104.119 30.7552 113.459 35.3188 120.228C36.5716 116.363 38.092 112.736 39.3448 108.872C39.6339 108.996 40.7293 108.988 42.3131 108.886L43.8373 105.316L44.263 108.735C48.9871 108.322 55.9941 107.415 60.4727 106.584L60.0373 103.961L62.6428 106.14C64.0149 105.823 64.8296 105.536 64.7623 105.316C68.0931 110.707 71.3934 114.15 74.7242 119.54C75.9886 111.937 78.2206 105.616 73.9665 98.6802Z" fill="#2F2E41"/>
<path d="M72.8623 118.868C73.6079 118.868 74.2123 117.655 74.2123 116.158C74.2123 114.661 73.6079 113.447 72.8623 113.447C72.1167 113.447 71.5123 114.661 71.5123 116.158C71.5123 117.655 72.1167 118.868 72.8623 118.868Z" fill="#FFB8B8"/>
<path d="M116.787 186.906C130.514 186.906 141.643 161.9 141.643 131.053C141.643 100.207 130.514 75.201 116.787 75.201C103.06 75.201 91.9316 100.207 91.9316 131.053C91.9316 161.9 103.06 186.906 116.787 186.906Z" fill="#FFB8B8"/>
<path opacity="0.2" d="M27.3932 61.3206C26.091 61.3206 24.818 60.9329 23.7352 60.2066C22.6524 59.4803 21.8085 58.448 21.3102 57.2403C20.8118 56.0325 20.6814 54.7035 20.9355 53.4213C21.1895 52.1392 21.8166 50.9614 22.7374 50.037C23.6583 49.1126 24.8315 48.4831 26.1087 48.2281C27.3859 47.973 28.7098 48.1039 29.9129 48.6042C31.116 49.1045 32.1443 49.9517 32.8678 51.0386C33.5913 52.1256 33.9774 53.4035 33.9774 54.7108C33.9755 56.4632 33.2811 58.1433 32.0468 59.3824C30.8124 60.6215 29.1388 61.3186 27.3932 61.3206ZM27.3932 48.7621C26.2212 48.7621 25.0755 49.1109 24.101 49.7646C23.1265 50.4183 22.367 51.3473 21.9185 52.4343C21.47 53.5213 21.3526 54.7174 21.5813 55.8714C21.8099 57.0253 22.3743 58.0853 23.203 58.9172C24.0318 59.7492 25.0876 60.3158 26.2371 60.5453C27.3866 60.7748 28.5781 60.657 29.6609 60.2068C30.7437 59.7565 31.6692 58.9941 32.3203 58.0158C32.9715 57.0375 33.319 55.8874 33.319 54.7108C33.3173 53.1337 32.6924 51.6216 31.5814 50.5064C30.4705 49.3911 28.9643 48.7638 27.3932 48.7621Z" fill="black"/>
<path opacity="0.2" d="M24.7595 54.0498C25.3049 54.0498 25.7471 53.6059 25.7471 53.0584C25.7471 52.5108 25.3049 52.0669 24.7595 52.0669C24.214 52.0669 23.7719 52.5108 23.7719 53.0584C23.7719 53.6059 24.214 54.0498 24.7595 54.0498Z" fill="black"/>
<path opacity="0.2" d="M29.6977 54.0498C30.2432 54.0498 30.6854 53.6059 30.6854 53.0584C30.6854 52.5108 30.2432 52.0669 29.6977 52.0669C29.1523 52.0669 28.7101 52.5108 28.7101 53.0584C28.7101 53.6059 29.1523 54.0498 29.6977 54.0498Z" fill="black"/>
<path opacity="0.2" d="M29.6977 57.0243H24.7595C24.6722 57.0243 24.5885 56.9894 24.5267 56.9275C24.465 56.8655 24.4303 56.7814 24.4303 56.6938C24.4303 56.6061 24.465 56.5221 24.5267 56.4601C24.5885 56.3981 24.6722 56.3633 24.7595 56.3633H29.6977C29.785 56.3633 29.8687 56.3981 29.9305 56.4601C29.9922 56.5221 30.0269 56.6061 30.0269 56.6938C30.0269 56.7814 29.9922 56.8655 29.9305 56.9275C29.8687 56.9894 29.785 57.0243 29.6977 57.0243Z" fill="black"/>
<path opacity="0.2" d="M84.676 61.3206C83.3738 61.3206 82.1008 60.9329 81.018 60.2066C79.9353 59.4803 79.0913 58.448 78.593 57.2403C78.0947 56.0325 77.9643 54.7035 78.2183 53.4213C78.4724 52.1392 79.0994 50.9614 80.0203 50.037C80.9411 49.1126 82.1143 48.4831 83.3915 48.2281C84.6687 47.973 85.9926 48.1039 87.1957 48.6042C88.3988 49.1045 89.4272 49.9517 90.1506 51.0386C90.8741 52.1256 91.2603 53.4035 91.2603 54.7108C91.2583 56.4632 90.564 58.1433 89.3296 59.3824C88.0953 60.6216 86.4217 61.3186 84.676 61.3206ZM84.676 48.7621C83.504 48.7621 82.3583 49.1109 81.3838 49.7646C80.4093 50.4183 79.6498 51.3473 79.2013 52.4343C78.7528 53.5213 78.6354 54.7174 78.8641 55.8714C79.0927 57.0253 79.6571 58.0853 80.4858 58.9172C81.3146 59.7492 82.3705 60.3158 83.52 60.5453C84.6695 60.7748 85.8609 60.657 86.9437 60.2068C88.0265 59.7565 88.952 58.9941 89.6032 58.0158C90.2543 57.0375 90.6019 55.8874 90.6019 54.7108C90.6001 53.1337 89.9752 51.6216 88.8642 50.5064C87.7533 49.3912 86.2471 48.7639 84.676 48.7621Z" fill="black"/>
<path opacity="0.2" d="M82.0423 54.0498C82.5878 54.0498 83.03 53.6059 83.03 53.0584C83.03 52.5108 82.5878 52.0669 82.0423 52.0669C81.4969 52.0669 81.0547 52.5108 81.0547 53.0584C81.0547 53.6059 81.4969 54.0498 82.0423 54.0498Z" fill="black"/>
<path opacity="0.2" d="M86.9806 54.0498C87.526 54.0498 87.9682 53.6059 87.9682 53.0584C87.9682 52.5108 87.526 52.0669 86.9806 52.0669C86.4351 52.0669 85.9929 52.5108 85.9929 53.0584C85.9929 53.6059 86.4351 54.0498 86.9806 54.0498Z" fill="black"/>
<path opacity="0.2" d="M86.9802 57.6852C86.9227 57.6852 86.8661 57.67 86.8163 57.6412C86.127 57.2024 85.3277 56.9695 84.5115 56.9695C83.6953 56.9695 82.896 57.2024 82.2067 57.6412C82.1692 57.6629 82.1278 57.6771 82.0849 57.6828C82.042 57.6885 81.9983 57.6856 81.9565 57.6744C81.9147 57.6631 81.8755 57.6437 81.8412 57.6172C81.8068 57.5907 81.7781 57.5577 81.7564 57.52C81.7348 57.4824 81.7208 57.4408 81.7153 57.3977C81.7097 57.3546 81.7126 57.3108 81.7239 57.2688C81.7353 57.2269 81.7547 57.1876 81.7811 57.1532C81.8076 57.1187 81.8405 57.0899 81.8781 57.0683C82.6681 56.5736 83.5804 56.3114 84.5115 56.3114C85.4425 56.3114 86.3549 56.5736 87.1448 57.0683C87.2077 57.1046 87.2569 57.1608 87.2847 57.2281C87.3125 57.2953 87.3174 57.3699 87.2987 57.4403C87.2799 57.5106 87.2385 57.5728 87.1809 57.6171C87.1233 57.6614 87.0528 57.6853 86.9802 57.6852Z" fill="black"/>
<path d="M56.3639 68.1306C53.7199 68.1306 51.1353 67.3436 48.937 65.869C46.7386 64.3944 45.0252 62.2985 44.0134 59.8463C43.0016 57.3942 42.7369 54.6959 43.2527 52.0927C43.7685 49.4896 45.0417 47.0984 46.9112 45.2216C48.7808 43.3448 51.1627 42.0667 53.7559 41.5489C56.349 41.0311 59.0369 41.2968 61.4796 42.3125C63.9223 43.3283 66.01 45.0483 67.4789 47.2552C68.9478 49.4621 69.7319 52.0566 69.7319 54.7108C69.7278 58.2687 68.3181 61.6797 65.812 64.1956C63.3059 66.7114 59.908 68.1265 56.3639 68.1306ZM56.3639 42.633C53.9843 42.633 51.6582 43.3414 49.6797 44.6685C47.7012 45.9956 46.1591 47.8819 45.2485 50.0888C44.3379 52.2958 44.0996 54.7242 44.5638 57.0671C45.0281 59.4099 46.1739 61.562 47.8565 63.2511C49.5391 64.9402 51.6829 66.0905 54.0167 66.5566C56.3505 67.0226 58.7696 66.7834 60.968 65.8693C63.1664 64.9551 65.0454 63.4071 66.3674 61.4209C67.6894 59.4347 68.3951 57.0996 68.3951 54.7108C68.3915 51.5087 67.1227 48.4387 64.8672 46.1745C62.6117 43.9103 59.5536 42.6366 56.3639 42.633V42.633Z" fill="white"/>
<path d="M78.421 76.8533H69.7318V75.5116H77.0842V68.1307H78.421V76.8533Z" fill="white"/>
<path d="M35.6435 41.2909H34.3066V32.568H42.9959V33.91H35.6435V41.2909Z" fill="white"/>
<rect x="50" y="49" width="2" height="8" rx="1" fill="white"/>
<rect x="60" y="49" width="2" height="8" rx="1" fill="white"/>
</g>
<defs>
<clipPath id="clip0_8_3460">
<rect width="189.378" height="246.063" fill="white"/>
</clipPath>
</defs>
</svg>
