<svg width="348" height="348" viewBox="0 0 348 348" fill="none" xmlns="http://www.w3.org/2000/svg">
<g clip-path="url(#clip0_8_3563)">
<path d="M33.4657 293.16L30.4009 281.108C24.9667 278.812 19.4069 276.823 13.7481 275.151L13.3613 280.752L11.7924 274.581C4.77441 272.581 3.45707e-06 271.701 3.45707e-06 271.701C3.45707e-06 271.701 6.44749 296.151 19.9751 314.844L35.7359 317.604L23.4918 319.364C25.1934 321.406 27.0221 323.338 28.967 325.151C48.6435 343.36 70.5599 351.715 77.9179 343.811C85.276 335.907 75.2899 314.739 55.6134 296.531C49.5135 290.886 41.8508 286.356 34.1801 282.79L33.4657 293.16Z" fill="#F2F2F2"/>
<path d="M62.6131 280.069L66.2377 268.173C62.7765 263.407 59.0485 258.839 55.0714 254.492L51.8364 259.087L53.6922 252.996C48.7206 247.669 45.0899 244.455 45.0899 244.455C45.0899 244.455 37.9346 268.709 39.8221 291.682L51.8831 302.167L40.487 297.364C40.8857 299.988 41.4497 302.586 42.1755 305.14C49.5789 330.869 64.0086 349.315 74.405 346.342C84.8013 343.368 87.228 320.1 79.8246 294.371C77.5297 286.395 73.3182 278.568 68.6008 271.563L62.6131 280.069Z" fill="#F2F2F2"/>
<path d="M242.833 82.4414H240.921V30.2235C240.921 26.2545 240.137 22.3244 238.613 18.6575C237.09 14.9906 234.857 11.6588 232.042 8.85226C229.227 6.04575 225.885 3.8195 222.207 2.30063C218.53 0.781752 214.588 0 210.607 0H99.6413C91.6015 0 83.8911 3.18425 78.2061 8.85226C72.5211 14.5203 69.3273 22.2077 69.3273 30.2235V316.7C69.3273 320.669 70.1114 324.599 71.6348 328.266C73.1583 331.933 75.3912 335.265 78.2061 338.071C81.021 340.878 84.3628 343.104 88.0406 344.623C91.7185 346.142 95.6604 346.924 99.6413 346.924H210.607C218.646 346.923 226.357 343.739 232.042 338.071C237.727 332.403 240.92 324.716 240.92 316.7V119.611H242.832L242.833 82.4414Z" fill="#E6E6E6"/>
<path d="M211.83 7.86023H197.346C198.013 9.48853 198.267 11.2552 198.087 13.0045C197.907 14.7539 197.298 16.4322 196.314 17.8917C195.33 19.3512 194.001 20.5471 192.445 21.3739C190.888 22.2007 189.151 22.6332 187.387 22.6331H123.817C122.053 22.633 120.316 22.2005 118.76 21.3736C117.203 20.5467 115.874 19.3508 114.891 17.8914C113.907 16.4319 113.298 14.7536 113.118 13.0043C112.938 11.255 113.192 9.48846 113.858 7.86023H100.33C94.3259 7.86023 88.5678 10.2382 84.3224 14.471C80.0769 18.7038 77.6918 24.4447 77.6918 30.4308V316.491C77.6918 322.477 80.0769 328.218 84.3224 332.451C88.5678 336.684 94.3259 339.062 100.33 339.062H211.83C217.834 339.062 223.592 336.684 227.838 332.451C232.083 328.218 234.468 322.477 234.468 316.491V30.4304C234.468 24.4443 232.083 18.7035 227.837 14.4708C223.592 10.2381 217.834 7.86023 211.83 7.86023Z" fill="white"/>
<path d="M141.872 121.812C141.872 119.813 142.399 117.848 143.403 116.117C144.406 114.385 145.848 112.948 147.586 111.949C145.849 110.949 143.879 110.422 141.874 110.422C139.869 110.422 137.899 110.948 136.162 111.948C134.425 112.947 132.983 114.385 131.98 116.116C130.977 117.848 130.449 119.812 130.449 121.811C130.449 123.811 130.977 125.775 131.98 127.506C132.983 129.238 134.425 130.676 136.162 131.675C137.899 132.675 139.869 133.201 141.874 133.201C143.879 133.2 145.849 132.674 147.586 131.674C145.849 130.675 144.406 129.238 143.403 127.507C142.4 125.776 141.872 123.811 141.872 121.812Z" fill="#CCCCCC"/>
<path d="M156.233 121.812C156.232 119.813 156.76 117.848 157.763 116.117C158.766 114.385 160.209 112.948 161.946 111.949C160.21 110.949 158.24 110.422 156.235 110.422C154.229 110.422 152.259 110.948 150.522 111.948C148.786 112.947 147.343 114.385 146.341 116.116C145.338 117.848 144.81 119.812 144.81 121.811C144.81 123.811 145.338 125.775 146.341 127.506C147.343 129.238 148.786 130.676 150.522 131.675C152.259 132.675 154.229 133.201 156.235 133.201C158.24 133.2 160.21 132.674 161.946 131.674C160.209 130.675 158.766 129.238 157.763 127.507C156.76 125.776 156.232 123.811 156.233 121.812Z" fill="#CCCCCC"/>
<path d="M170.267 133.201C176.576 133.201 181.69 128.102 181.69 121.812C181.69 115.522 176.576 110.422 170.267 110.422C163.958 110.422 158.844 115.522 158.844 121.812C158.844 128.102 163.958 133.201 170.267 133.201Z" fill="#50ACFE"/>
<path d="M189.358 157.385H122.781C122.147 157.384 121.539 157.133 121.091 156.686C120.643 156.239 120.391 155.633 120.39 155.001V88.6223C120.391 87.9904 120.643 87.3846 121.091 86.9377C121.539 86.4909 122.147 86.2395 122.781 86.2388H189.358C189.992 86.2395 190.6 86.4909 191.048 86.9377C191.496 87.3846 191.748 87.9904 191.749 88.6223V155.001C191.748 155.633 191.496 156.239 191.048 156.686C190.6 157.133 189.992 157.384 189.358 157.385ZM122.781 87.1928C122.401 87.1931 122.036 87.3439 121.767 87.612C121.498 87.8801 121.347 88.2437 121.346 88.6228V155.002C121.347 155.381 121.498 155.744 121.767 156.012C122.036 156.28 122.401 156.431 122.781 156.432H189.358C189.738 156.431 190.103 156.28 190.372 156.012C190.641 155.744 190.792 155.381 190.792 155.002V88.6228C190.792 88.2437 190.641 87.8801 190.372 87.612C190.103 87.3439 189.738 87.1931 189.358 87.1928H122.781Z" fill="#CCCCCC"/>
<path d="M204.224 208.267H102.114V209.22H204.224V208.267Z" fill="#CCCCCC"/>
<path d="M105.339 202.314C107.12 202.314 108.564 200.874 108.564 199.099C108.564 197.323 107.12 195.884 105.339 195.884C103.558 195.884 102.114 197.323 102.114 199.099C102.114 200.874 103.558 202.314 105.339 202.314Z" fill="#50ACFE"/>
<path d="M204.224 240.416H102.114V241.369H204.224V240.416Z" fill="#CCCCCC"/>
<path d="M105.339 234.463C107.12 234.463 108.564 233.024 108.564 231.248C108.564 229.472 107.12 228.033 105.339 228.033C103.558 228.033 102.114 229.472 102.114 231.248C102.114 233.024 103.558 234.463 105.339 234.463Z" fill="#50ACFE"/>
<path d="M202.355 277.025H170.086C169.528 277.025 168.994 276.804 168.6 276.411C168.206 276.018 167.984 275.485 167.983 274.929V263.653C167.984 263.097 168.206 262.564 168.6 262.171C168.994 261.778 169.528 261.557 170.086 261.557H202.355C202.913 261.557 203.447 261.778 203.841 262.171C204.235 262.564 204.457 263.097 204.458 263.653V274.929C204.457 275.485 204.235 276.018 203.841 276.411C203.447 276.804 202.913 277.025 202.355 277.025Z" fill="#50ACFE"/>
<path d="M115.858 202.314C117.639 202.314 119.082 200.874 119.082 199.099C119.082 197.323 117.639 195.884 115.858 195.884C114.077 195.884 112.633 197.323 112.633 199.099C112.633 200.874 114.077 202.314 115.858 202.314Z" fill="#50ACFE"/>
<path d="M126.376 202.314C128.157 202.314 129.601 200.874 129.601 199.099C129.601 197.323 128.157 195.884 126.376 195.884C124.595 195.884 123.152 197.323 123.152 199.099C123.152 200.874 124.595 202.314 126.376 202.314Z" fill="#50ACFE"/>
<path d="M115.858 234.463C117.639 234.463 119.082 233.024 119.082 231.248C119.082 229.472 117.639 228.033 115.858 228.033C114.077 228.033 112.633 229.472 112.633 231.248C112.633 233.024 114.077 234.463 115.858 234.463Z" fill="#50ACFE"/>
<path d="M126.376 234.463C128.157 234.463 129.601 233.024 129.601 231.248C129.601 229.472 128.157 228.033 126.376 228.033C124.595 228.033 123.152 229.472 123.152 231.248C123.152 233.024 124.595 234.463 126.376 234.463Z" fill="#50ACFE"/>
<path d="M346.7 348H11.2504C10.5323 348 9.95062 347.746 9.95062 347.433C9.95062 347.12 10.5323 346.865 11.2504 346.865H346.7C347.418 346.865 348 347.119 348 347.433C348 347.746 347.418 348 346.7 348Z" fill="#3F3D56"/>
<path d="M263.822 227.999C264.051 228.103 264.272 228.226 264.481 228.365L285.437 219.448L286.185 213.945L294.558 213.894L294.063 226.516L266.404 233.809C266.346 234.001 266.276 234.189 266.195 234.372C265.796 235.223 265.152 235.936 264.347 236.424C263.541 236.912 262.609 237.151 261.668 237.112C260.726 237.073 259.817 236.758 259.055 236.206C258.293 235.653 257.711 234.889 257.383 234.008C257.055 233.127 256.995 232.169 257.211 231.255C257.428 230.341 257.91 229.51 258.598 228.868C259.286 228.226 260.149 227.801 261.078 227.646C262.008 227.492 262.962 227.614 263.822 227.999Z" fill="#FFB8B8"/>
<path d="M297.603 342.384H291.875L289.15 320.357L297.604 320.357L297.603 342.384Z" fill="#FFB8B8"/>
<path d="M287.784 340.752H298.83V347.687H280.828C280.828 345.848 281.561 344.084 282.866 342.783C284.17 341.483 285.939 340.752 287.784 340.752Z" fill="#2F2E41"/>
<path d="M319.88 340.771L314.179 341.33L309.301 319.676L317.714 318.849L319.88 340.771Z" fill="#FFB8B8"/>
<path d="M309.947 340.107L320.941 339.027L321.623 345.928L303.707 347.687C303.618 346.781 303.708 345.866 303.973 344.995C304.238 344.123 304.673 343.312 305.253 342.608C305.832 341.905 306.545 341.321 307.35 340.892C308.156 340.463 309.038 340.196 309.947 340.107Z" fill="#2F2E41"/>
<path d="M299.197 190.581C305.535 190.581 310.673 185.459 310.673 179.14C310.673 172.822 305.535 167.699 299.197 167.699C292.86 167.699 287.722 172.822 287.722 179.14C287.722 185.459 292.86 190.581 299.197 190.581Z" fill="#FFB8B8"/>
<path d="M290.595 337.929C290.103 337.931 289.626 337.759 289.249 337.444C288.871 337.128 288.618 336.691 288.532 336.207C285.568 319.799 275.877 266.146 275.645 264.66C275.64 264.626 275.637 264.591 275.638 264.557V260.556C275.637 260.411 275.683 260.269 275.768 260.15L277.048 258.362C277.109 258.276 277.189 258.205 277.282 258.155C277.374 258.105 277.477 258.076 277.583 258.071C284.881 257.73 308.785 256.73 309.94 258.169C311.099 259.614 310.69 263.994 310.596 264.858L310.6 264.948L321.339 333.421C321.423 333.967 321.288 334.524 320.963 334.971C320.639 335.419 320.15 335.721 319.604 335.812L312.896 336.914C312.397 336.994 311.885 336.893 311.454 336.628C311.023 336.364 310.702 335.954 310.548 335.473C308.474 328.864 301.517 306.631 299.107 298.028C299.092 297.974 299.057 297.926 299.01 297.895C298.962 297.864 298.905 297.852 298.849 297.86C298.793 297.868 298.742 297.896 298.705 297.938C298.668 297.981 298.648 298.036 298.649 298.093C298.769 306.294 299.06 327.217 299.16 334.444L299.171 335.222C299.176 335.749 298.982 336.258 298.628 336.649C298.274 337.041 297.785 337.285 297.259 337.335L290.791 337.921C290.726 337.927 290.66 337.929 290.595 337.929Z" fill="#2F2E41"/>
<path d="M291.915 195.08C289.912 196.267 288.714 198.448 288.026 200.667C286.753 204.777 285.987 209.025 285.744 213.319L285.017 226.175L276.021 260.259C283.818 266.837 288.316 265.342 298.812 259.961C309.308 254.581 310.507 261.755 310.507 261.755L312.606 232.754L315.605 201.064C314.932 200.256 314.17 199.525 313.334 198.887C310.562 196.738 307.337 195.244 303.902 194.518C300.467 193.792 296.912 193.853 293.504 194.696L291.915 195.08Z" fill="#50ACFE"/>
<path d="M288.993 234.882C289.235 234.973 289.469 235.083 289.694 235.21L310.414 224.87L310.758 219.269L319.305 218.681L319.763 231.45L292.073 240.58C291.847 241.547 291.331 242.422 290.594 243.09C289.857 243.757 288.933 244.185 287.946 244.316C286.959 244.447 285.955 244.276 285.068 243.825C284.181 243.373 283.453 242.664 282.981 241.79C282.508 240.916 282.314 239.919 282.423 238.932C282.533 237.946 282.941 237.015 283.594 236.266C284.246 235.516 285.112 234.982 286.077 234.735C287.041 234.488 288.058 234.539 288.993 234.882Z" fill="#FFB8B8"/>
<path d="M315.455 201.209C320.553 203.003 321.451 222.438 321.451 222.438C315.453 219.149 308.256 224.531 308.256 224.531C308.256 224.531 306.757 219.448 304.958 212.87C304.414 211.02 304.349 209.063 304.769 207.181C305.188 205.299 306.078 203.554 307.356 202.107C307.356 202.107 310.357 199.414 315.455 201.209Z" fill="#50ACFE"/>
<path d="M309.487 182.166C308.057 181.026 306.106 183.098 306.106 183.098L304.962 172.835C304.962 172.835 297.814 173.689 293.238 172.55C288.663 171.411 287.948 176.684 287.948 176.684C287.713 174.554 287.665 172.408 287.806 170.269C288.091 167.704 291.809 165.138 298.386 163.427C304.962 161.716 308.394 169.129 308.394 169.129C312.969 171.41 310.916 183.307 309.487 182.166Z" fill="#2F2E41"/>
</g>
<defs>
<clipPath id="clip0_8_3563">
<rect width="348" height="348" fill="white"/>
</clipPath>
</defs>
</svg>
