<svg width="74" height="32" viewBox="0 0 74 32" fill="none" xmlns="http://www.w3.org/2000/svg">
<path d="M28.8321 25.6376C26.8001 28.3248 23.9704 30.304 20.7459 31.2934C17.5214 32.2828 14.0663 32.232 10.8723 31.1484C7.6784 30.0647 4.90835 28.0033 2.95643 25.2576C1.00451 22.5119 -0.0298133 19.2218 0.000654269 15.8555C0.0311218 12.4892 1.12483 9.21825 3.12613 6.50818C5.12743 3.79811 7.93433 1.787 11.1474 0.76108C14.3604 -0.264841 17.8159 -0.2533 21.022 0.794059C24.228 1.84142 27.0214 3.87123 29.0045 6.59461L24.419 6.50818C24.419 6.50818 22.5024 4.74935 21.022 4.04598C17.5402 2.39171 14.7205 2.59875 11.1474 4.04598C8.35154 5.17837 6.80266 6.39367 5.16024 8.91954C3.62078 11.2871 3.18387 13.0338 3.12613 15.8555C3.06404 18.8895 3.5055 20.8103 5.16024 23.3563C6.7446 25.794 8.19023 27.0072 10.8723 28.1379C14.4243 29.6353 17.2185 29.6919 20.7459 28.1379C22.3344 27.4381 24.419 25.6376 24.419 25.6376H28.8321Z" fill="white"/>
<path d="M27.0228 9.1954H30.5244C30.5244 9.1954 32.047 13.3951 31.9989 16.1839C31.9544 18.7624 30.5244 22.6207 30.5244 22.6207H27.0228C27.0228 22.6207 28.6317 18.7793 28.6815 16.1839C28.7352 13.3794 27.0228 9.1954 27.0228 9.1954Z" fill="white"/>
<path d="M39.6663 13.64C40.0263 13.0533 40.493 12.5933 41.0663 12.26C41.653 11.9267 42.3197 11.76 43.0663 11.76V14.7H42.3263C41.4463 14.7 40.7797 14.9067 40.3263 15.32C39.8863 15.7333 39.6663 16.4533 39.6663 17.48V23H36.8663V11.92H39.6663V13.64ZM44.2323 17.46C44.2323 16.3133 44.4656 15.3133 44.9323 14.46C45.3989 13.5933 46.0456 12.9267 46.8723 12.46C47.6989 11.98 48.6456 11.74 49.7123 11.74C51.0856 11.74 52.2189 12.0867 53.1123 12.78C54.0189 13.46 54.6256 14.42 54.9323 15.66H51.9123C51.7523 15.18 51.4789 14.8067 51.0923 14.54C50.7189 14.26 50.2523 14.12 49.6923 14.12C48.8923 14.12 48.2589 14.4133 47.7923 15C47.3256 15.5733 47.0923 16.3933 47.0923 17.46C47.0923 18.5133 47.3256 19.3333 47.7923 19.92C48.2589 20.4933 48.8923 20.78 49.6923 20.78C50.8256 20.78 51.5656 20.2733 51.9123 19.26H54.9323C54.6256 20.46 54.0189 21.4133 53.1123 22.12C52.2056 22.8267 51.0723 23.18 49.7123 23.18C48.6456 23.18 47.6989 22.9467 46.8723 22.48C46.0456 22 45.3989 21.3333 44.9323 20.48C44.4656 19.6133 44.2323 18.6067 44.2323 17.46ZM59.7835 8.2V23H56.9835V8.2H59.7835ZM72.8499 17.22C72.8499 17.62 72.8233 17.98 72.7699 18.3H64.6699C64.7366 19.1 65.0166 19.7267 65.5099 20.18C66.0033 20.6333 66.6099 20.86 67.3299 20.86C68.3699 20.86 69.1099 20.4133 69.5499 19.52H72.5699C72.2499 20.5867 71.6366 21.4667 70.7299 22.16C69.8233 22.84 68.7099 23.18 67.3899 23.18C66.3233 23.18 65.3633 22.9467 64.5099 22.48C63.6699 22 63.0099 21.3267 62.5299 20.46C62.0633 19.5933 61.8299 18.5933 61.8299 17.46C61.8299 16.3133 62.0633 15.3067 62.5299 14.44C62.9966 13.5733 63.6499 12.9067 64.4899 12.44C65.3299 11.9733 66.2966 11.74 67.3899 11.74C68.4433 11.74 69.3833 11.9667 70.2099 12.42C71.0499 12.8733 71.6966 13.52 72.1499 14.36C72.6166 15.1867 72.8499 16.14 72.8499 17.22ZM69.9499 16.42C69.9366 15.7 69.6766 15.1267 69.1699 14.7C68.6633 14.26 68.0433 14.04 67.3099 14.04C66.6166 14.04 66.0299 14.2533 65.5499 14.68C65.0833 15.0933 64.7966 15.6733 64.6899 16.42H69.9499Z" fill="white"/>
</svg>
