<svg width="222" height="222" viewBox="0 0 222 222" fill="none" xmlns="http://www.w3.org/2000/svg">
<path d="M211.89 106.691C211.89 109.594 211.768 112.467 211.522 115.311C211.328 117.53 211.064 119.73 210.729 121.91C210.373 124.218 209.937 126.498 209.421 128.751V128.753C209.084 130.236 208.713 131.706 208.31 133.164C207.138 137.403 205.681 141.559 203.949 145.605C203.572 146.485 203.183 147.359 202.782 148.227C201.265 151.514 199.565 154.716 197.692 157.817C192.439 166.526 185.881 174.392 178.244 181.143C177.417 181.873 176.579 182.59 175.73 183.295C157.699 198.245 134.94 206.419 111.445 206.383C55.9702 206.383 11 161.75 11 106.691C11 51.6327 55.9702 7.00012 111.445 7.00012C134.131 6.96462 156.156 14.586 173.902 28.6129C174.734 29.2671 175.555 29.936 176.366 30.6197C180.323 33.9505 184.016 37.5784 187.412 41.4715H187.415C203.233 59.5692 211.926 82.7328 211.89 106.691Z" fill="#F2F2F2"/>
<path d="M40.6513 123.912C31.0827 118.26 23.8607 107.696 24.7983 96.6842C33.5463 104.994 44.974 109.965 57.0593 110.718C61.7212 110.991 66.935 110.813 70.3666 113.957C72.5019 115.913 73.4959 118.858 73.6589 121.737C73.8219 124.617 73.2408 127.481 72.6626 130.307L72.8616 131C61.7265 131.041 50.2199 129.564 40.6513 123.912Z" fill="#E6E6E6"/>
<path d="M25.0316 96.6724C28.8655 104.991 35.2428 111.899 43.2578 116.416C44.9808 117.373 46.8127 118.195 48.7593 118.576C50.6596 118.934 52.6217 118.779 54.4416 118.13C56.1508 117.557 57.8323 116.776 59.6519 116.626C61.5697 116.468 63.3453 117.203 64.7403 118.489C66.4471 120.063 67.4824 122.151 68.4232 124.229C69.4679 126.535 70.5162 128.947 72.5192 130.606C72.7619 130.807 72.4335 131.169 72.1912 130.968C68.7064 128.082 68.1375 123.25 65.3519 119.851C64.0521 118.265 62.2629 117.058 60.1373 117.09C58.2786 117.118 56.5439 117.922 54.8184 118.516C53.0065 119.14 51.1915 119.433 49.2787 119.159C47.322 118.878 45.4539 118.125 43.7138 117.216C39.7833 115.125 36.2085 112.433 33.1204 109.24C29.5757 105.615 26.6818 101.415 24.5641 96.8209C24.4332 96.5366 24.9015 96.3899 25.0316 96.6724H25.0316Z" fill="white"/>
<path d="M40.5908 115.112C39.6447 116.344 38.2883 117.202 36.7638 117.533C35.2392 117.863 33.6459 117.646 32.2682 116.918C31.9899 116.77 32.2088 116.334 32.4875 116.482C33.7691 117.162 35.2533 117.365 36.6723 117.054C38.0914 116.743 39.3516 115.939 40.2257 114.787C40.416 114.536 40.7799 114.863 40.5908 115.112L40.5908 115.112Z" fill="white"/>
<path d="M53.6135 118.533C53.2154 115.392 51.6389 112.515 49.1984 110.476C48.9564 110.274 49.2848 109.912 49.5264 110.113C52.0621 112.24 53.6965 115.237 54.1036 118.507C54.1422 118.819 53.6519 118.843 53.6135 118.533V118.533Z" fill="white"/>
<path d="M30.1843 105.386C30.6504 104.985 31.0089 104.476 31.2276 103.903C31.4462 103.331 31.5183 102.714 31.4371 102.107C31.3946 101.796 31.8849 101.772 31.9272 102.081C32.0137 102.752 31.9333 103.433 31.6931 104.066C31.4529 104.699 31.0602 105.264 30.5493 105.712C30.5047 105.758 30.4441 105.785 30.3797 105.789C30.3154 105.792 30.2521 105.771 30.2028 105.73C30.1547 105.687 30.1258 105.626 30.1223 105.562C30.1188 105.497 30.1411 105.434 30.1843 105.386V105.386Z" fill="white"/>
<path d="M55.7711 75.3497C55.8032 75.5432 55.8354 75.7367 55.8712 75.932C56.3168 78.5309 56.9744 81.0897 57.8374 83.5829C57.9011 83.7767 57.9685 83.9722 58.0377 84.1638C60.1815 90.1486 63.4263 95.6864 67.6071 100.496C69.2725 102.408 71.082 104.191 73.0201 105.831C75.6967 108.095 78.7804 110.339 80.4965 113.263C80.679 113.566 80.8425 113.88 80.9858 114.203L73.6971 130.705C73.6616 130.734 73.6298 130.765 73.5941 130.795L73.3335 131.467C73.2276 131.389 73.1194 131.306 73.0135 131.229C72.9519 131.184 72.8919 131.135 72.8303 131.091C72.7897 131.06 72.7492 131.028 72.7108 131.003C72.6973 130.992 72.6838 130.982 72.674 130.973C72.6356 130.948 72.6027 130.92 72.5681 130.896C71.9623 130.435 71.3586 129.969 70.7572 129.497C70.7534 129.496 70.7534 129.496 70.7512 129.49C66.1777 125.889 61.867 121.877 58.3069 117.343C58.1998 117.207 58.0889 117.069 57.9851 116.925C56.3918 114.873 54.9702 112.694 53.7344 110.412C53.0618 109.16 52.4535 107.875 51.9118 106.562C50.5187 103.167 49.6723 99.5758 49.4037 95.9197C48.8693 88.6311 50.6895 81.2541 55.4066 75.7656C55.5273 75.6252 55.6465 75.4884 55.7711 75.3497Z" fill="#E6E6E6"/>
<path d="M55.9657 75.4787C53.9806 84.4115 54.882 93.7381 58.5416 102.134C59.3367 103.927 60.3006 105.679 61.6235 107.146C62.9241 108.567 64.5843 109.616 66.4316 110.185C68.1433 110.749 69.9601 111.13 71.5037 112.098C73.1308 113.118 74.1029 114.765 74.4365 116.626C74.8446 118.902 74.4043 121.188 73.8953 123.409C73.3303 125.875 72.704 128.428 73.297 130.949C73.3689 131.254 72.8871 131.347 72.8153 131.042C71.7835 126.656 74.2611 122.457 74.0988 118.079C74.023 116.036 73.3264 114.003 71.61 112.758C70.109 111.67 68.2359 111.276 66.4978 110.719C64.6727 110.134 63.0457 109.284 61.6849 107.922C60.2929 106.528 59.2581 104.811 58.4203 103.045C56.5506 99.0266 55.3291 94.7414 54.8005 90.3465C54.1693 85.3339 54.4067 80.2511 55.5024 75.3179C55.5703 75.0126 56.0332 75.1754 55.9657 75.4787Z" fill="white"/>
<path d="M57.203 99.4991C55.7004 99.9173 54.0969 99.7917 52.679 99.1449C51.2611 98.4981 50.121 97.3721 49.4623 95.9679C49.33 95.6834 49.7693 95.466 49.9018 95.7509C50.5127 97.0596 51.5748 98.1083 52.8964 98.708C54.2181 99.3077 55.7121 99.4187 57.109 99.021C57.4126 98.935 57.5049 99.4135 57.203 99.4991H57.203Z" fill="white"/>
<path d="M65.5257 110.012C67.1134 107.266 67.5999 104.027 66.8882 100.941C66.8174 100.635 67.2992 100.542 67.3699 100.847C68.1044 104.06 67.5913 107.43 65.9327 110.284C65.7744 110.556 65.3682 110.283 65.5257 110.012Z" fill="white"/>
<path d="M54.794 85.515C55.4093 85.4735 56.0046 85.2809 56.5264 84.9545C57.0483 84.6282 57.4802 84.1783 57.7836 83.6453C57.9383 83.3715 58.3444 83.6454 58.1906 83.9174C57.8527 84.5047 57.375 85.001 56.7993 85.3628C56.2236 85.7247 55.5673 85.9411 54.8879 85.9931C54.8243 86.0033 54.7591 85.9892 54.7057 85.9534C54.6522 85.9177 54.6145 85.8631 54.6001 85.8007C54.588 85.7373 54.6015 85.6718 54.6378 85.6183C54.6741 85.5648 54.7302 85.5277 54.794 85.515V85.515Z" fill="white"/>
<path d="M80.5792 30.1058L92.8733 172.943L68.2852 174.778V31.923C71.2151 29.9989 75.4209 29.6978 80.5792 30.1058Z" fill="#CCCCCC"/>
<path d="M141.265 30.1058L128.971 172.943L153.559 174.778V31.923C150.629 29.9989 146.423 29.6978 141.265 30.1058Z" fill="#CCCCCC"/>
<path d="M149.877 180.681H71.7052C70.4517 180.68 69.25 180.185 68.3636 179.305C67.4773 178.425 66.9787 177.233 66.9773 175.989V34.0193C66.9787 32.7753 67.4773 31.5825 68.3636 30.7028C69.25 29.8232 70.4517 29.3283 71.7052 29.3269H149.877C151.131 29.3283 152.333 29.8232 153.219 30.7028C154.105 31.5825 154.604 32.7753 154.605 34.0193V175.989C154.604 177.233 154.105 178.425 153.219 179.305C152.333 180.185 151.131 180.68 149.877 180.681ZM71.7052 30.8846C70.8678 30.8855 70.065 31.2161 69.4729 31.8037C68.8807 32.3914 68.5477 33.1882 68.5468 34.0193V175.989C68.5477 176.82 68.8807 177.617 69.4729 178.204C70.065 178.792 70.8678 179.123 71.7052 179.124H149.877C150.715 179.123 151.518 178.792 152.11 178.204C152.702 177.617 153.035 176.82 153.036 175.989V34.0193C153.035 33.1882 152.702 32.3914 152.11 31.8037C151.518 31.2161 150.715 30.8855 149.877 30.8846L71.7052 30.8846Z" fill="#CCCCCC"/>
<path d="M153.821 52.9517H67.762V54.5093H153.821V52.9517Z" fill="#CCCCCC"/>
<path d="M153.821 78.9128H67.762V80.4705H153.821V78.9128Z" fill="#CCCCCC"/>
<path d="M95.6889 30.1057H94.1194V100.98H95.6889V30.1057Z" fill="#CCCCCC"/>
<path d="M127.463 30.1057H125.894V100.98H127.463V30.1057Z" fill="#CCCCCC"/>
<path d="M163.63 184.965H60.5687C58.6956 184.965 56.8992 184.226 55.5747 182.912C54.2502 181.597 53.5061 179.814 53.5061 177.955C53.5061 176.096 54.2502 174.313 55.5747 172.999C56.8992 171.684 58.6956 170.946 60.5687 170.946H163.63C165.503 170.946 167.299 171.684 168.624 172.999C169.948 174.313 170.692 176.096 170.692 177.955C170.692 179.814 169.948 181.597 168.624 182.912C167.299 184.226 165.503 184.965 163.63 184.965Z" fill="#CCCCCC"/>
<path d="M153.821 97.3455H68.2852V102.538H153.821V97.3455Z" fill="#CCCCCC"/>
<path d="M95.9324 113.87L95.8238 113.818C89.9929 111.022 82.3571 111.025 71.0648 113.827L70.9442 113.857L70.9081 113.739C69.7135 109.851 68.3603 105.448 70.9025 103.282C70.9381 96.9254 76.5562 91.7637 83.457 91.7637C90.3563 91.7637 95.9737 96.9227 96.0113 103.278C99.7931 106.147 97.9908 110.388 95.9935 113.767L95.9324 113.87Z" fill="#2F2E41"/>
<path d="M131.771 100.258C131.667 100.773 131.45 101.259 131.135 101.682C130.821 102.105 130.417 102.454 129.952 102.706C129.487 102.957 128.972 103.104 128.444 103.136C127.915 103.168 127.386 103.085 126.894 102.893L106.287 123.445L104.449 117.063L124.915 97.9777C125.296 97.1779 125.959 96.5446 126.779 96.1976C127.599 95.8507 128.519 95.8144 129.364 96.0955C130.209 96.3766 130.921 96.9556 131.364 97.7229C131.808 98.4901 131.953 99.3922 131.771 100.258L131.771 100.258Z" fill="#FFB6B6"/>
<path d="M80.843 120.044C80.843 120.044 78.9734 124.249 83.5865 126.842C88.1995 129.435 104.322 125.853 106.938 125.352C109.554 124.852 119.325 110.34 119.325 110.34L117.944 103.222L104.985 114.387L80.843 120.044Z" fill="#50ACFE"/>
<path d="M77.4404 143.297L77.7019 148.23C77.7019 148.23 76.9299 152.599 77.5648 153.542C78.195 154.48 95.3914 154.599 95.3914 154.599C95.3914 154.599 96.5276 148.519 97.5063 143.198L77.4404 143.297Z" fill="#FFB6B6"/>
<path d="M126.882 208.517L130.477 207.797L129.448 193.384L124.142 194.448L126.882 208.517Z" fill="#FFB6B6"/>
<path d="M132.032 189.762L135.374 188.27L131.038 174.481L126.105 176.682L132.032 189.762Z" fill="#FFB6B6"/>
<path d="M134.943 181.992L128.65 185.529L113.13 160.777C102.235 168.062 91.581 171.55 80.8409 173.412C77.2097 174.054 73.5075 173.728 72.8104 170.06C72.7778 169.889 72.7518 169.716 72.7324 169.543C72.3036 165.536 77.3252 160.401 77.9636 155.499L91.7069 154.68L93.4016 156.836L109.295 147.138C112.492 145.188 116.696 146.243 118.685 149.495C118.79 149.666 118.888 149.842 118.978 150.022L134.943 181.992Z" fill="#2F2E41"/>
<path d="M131.091 198.643L123.89 199.307L110.834 172.806C97.8875 175.015 85.6733 175.723 75.1086 173.05C71.5316 172.157 69.3451 168.492 70.2249 164.862C70.2661 164.693 70.3136 164.525 70.3676 164.359C71.632 160.53 74.9417 157.821 77.5494 153.61L96.5965 153.897L94.4691 161.182L112.972 158.806C116.693 158.328 120.091 161.001 120.562 164.777C120.587 164.976 120.604 165.176 120.611 165.377L131.091 198.643Z" fill="#2F2E41"/>
<path d="M84.8776 110.102C89.1491 110.102 92.6118 106.665 92.6118 102.426C92.6118 98.1866 89.1491 94.7499 84.8776 94.7499C80.6061 94.7499 77.1434 98.1866 77.1434 102.426C77.1434 106.665 80.6061 110.102 84.8776 110.102Z" fill="#FFB6B6"/>
<path d="M80.3433 112.873L87.4349 113.701C87.7339 113.736 88.0146 113.863 88.2377 114.064C88.4608 114.264 88.6152 114.529 88.6795 114.821L89.8073 119.943L96.8376 128.16C96.8376 128.16 99.3621 132.858 98.4154 138.182C97.4688 143.507 97.0527 147.463 97.0527 147.463C97.0527 147.463 78.1941 154.481 77.563 153.541C76.9318 152.601 76.727 148.334 76.727 148.334L74.2025 120.459C74.2025 120.459 77.0426 115.761 78.6204 115.761C79.6387 115.727 79.5081 113.452 80.3433 112.873Z" fill="#50ACFE"/>
<path d="M97.2445 149.176C98.239 149.176 99.0452 148.216 99.0452 147.032C99.0452 145.847 98.239 144.887 97.2445 144.887C96.2501 144.887 95.4439 145.847 95.4439 147.032C95.4439 148.216 96.2501 149.176 97.2445 149.176Z" fill="#50ACFE"/>
<path d="M125.098 204.806L130.579 202.08L131.612 204.472L138.543 205.862C138.885 205.931 139.196 206.106 139.431 206.363C139.666 206.62 139.812 206.944 139.848 207.289C139.883 207.634 139.807 207.981 139.63 208.28C139.453 208.578 139.185 208.813 138.864 208.95L132.167 211.799L129.991 209.924L130.562 212.481L128.037 213.556L125.098 204.806Z" fill="#2F2E41"/>
<path d="M130.463 188.615L135.895 185.793L136.97 188.167L143.924 189.436C144.268 189.499 144.582 189.668 144.822 189.921C145.061 190.173 145.212 190.495 145.254 190.839C145.296 191.184 145.226 191.532 145.055 191.834C144.883 192.136 144.619 192.375 144.3 192.517L137.655 195.483L135.446 193.646L136.062 196.193L133.557 197.311L130.463 188.615Z" fill="#2F2E41"/>
<path d="M80.4587 100.018C78.4154 100.021 76.4211 99.397 74.7496 98.2306L74.6938 98.1918V98.1242C74.696 96.1626 75.4822 94.2819 76.8798 92.8948C78.2773 91.5077 80.1722 90.7274 82.1487 90.7252H85.2876C87.2641 90.7274 89.159 91.5077 90.5566 92.8948C91.9542 94.2819 92.7403 96.1626 92.7426 98.1242C92.7405 98.5732 92.5619 99.0036 92.2448 99.3238C91.9277 99.644 91.4971 99.8287 91.0449 99.8386L80.6351 100.017C80.5763 100.018 80.5173 100.018 80.4587 100.018Z" fill="#2F2E41"/>
<path d="M93.2657 96.7032C94.2666 96.1297 94.4338 94.5575 93.6393 93.1917C92.8447 91.8258 91.3892 91.1834 90.3884 91.757C89.3875 92.3305 89.2202 93.9027 90.0148 95.2686C90.8093 96.6344 92.2648 97.2768 93.2657 96.7032Z" fill="#2F2E41"/>
<path d="M77.6121 95.1796C78.7358 94.0644 78.9843 92.5027 78.167 91.6917C77.3498 90.8806 75.7764 91.1271 74.6528 92.2424C73.5291 93.3576 73.2806 94.9192 74.0979 95.7303C74.9151 96.5414 76.4885 96.2948 77.6121 95.1796Z" fill="#2F2E41"/>
<path d="M146.062 165.364H138.342C138.168 165.364 137.996 165.401 137.838 165.473C137.68 165.546 137.539 165.652 137.427 165.784C137.142 165.732 136.849 165.748 136.572 165.83C136.294 165.912 136.041 166.059 135.831 166.257C135.622 166.456 135.463 166.701 135.368 166.972C135.272 167.243 135.243 167.533 135.282 167.818C135.321 168.102 135.428 168.374 135.594 168.609C135.759 168.845 135.979 169.039 136.234 169.174C136.489 169.309 136.774 169.382 137.063 169.388C137.353 169.393 137.639 169.33 137.899 169.204L138.54 171.269C138.615 171.513 138.768 171.727 138.976 171.88C139.183 172.032 139.434 172.114 139.692 172.114H144.712C144.97 172.114 145.221 172.032 145.428 171.88C145.636 171.727 145.789 171.513 145.864 171.269L147.215 166.913C147.27 166.734 147.283 166.545 147.251 166.36C147.219 166.175 147.144 166.001 147.032 165.85C146.92 165.699 146.774 165.577 146.605 165.492C146.437 165.408 146.251 165.364 146.062 165.364ZM137.101 168.869C136.754 168.869 136.422 168.732 136.176 168.488C135.931 168.245 135.793 167.915 135.793 167.571C135.793 167.226 135.931 166.896 136.176 166.653C136.422 166.409 136.754 166.273 137.101 166.273C137.125 166.273 137.147 166.278 137.171 166.28C137.119 166.488 137.125 166.708 137.189 166.913L137.742 168.695C137.547 168.807 137.326 168.867 137.101 168.869Z" fill="#3F3D56"/>
<path d="M111.59 159.728C111.063 159.777 110.531 159.71 110.033 159.532C109.535 159.355 109.081 159.071 108.706 158.701C108.33 158.331 108.04 157.884 107.858 157.39C107.675 156.897 107.603 156.37 107.648 155.847L81.8984 142.152L87.5304 138.573L111.824 152.555C112.705 152.688 113.507 153.137 114.077 153.817C114.647 154.497 114.946 155.361 114.917 156.245C114.888 157.129 114.533 157.972 113.92 158.614C113.307 159.256 112.478 159.653 111.59 159.728Z" fill="#FFB6B6"/>
<path d="M77.8805 116.984C77.8805 116.984 73.2855 116.413 72.1062 121.543C70.9268 126.673 79.0107 140.974 80.2441 143.318C81.4775 145.662 98.2884 150.788 98.2884 150.788L104.762 147.432L90.2675 138.315L77.8805 116.984Z" fill="#50ACFE"/>
<path d="M110.268 95.7878H111.838C112.601 95.7878 113.333 96.0887 113.872 96.6243C114.412 97.1598 114.715 97.8862 114.715 98.6436H107.391C107.391 97.8862 107.694 97.1598 108.234 96.6243C108.773 96.0887 109.505 95.7878 110.268 95.7878Z" fill="#CCCCCC"/>
<path d="M60.501 42.5063C69.0883 42.5063 76.0496 35.5972 76.0496 27.0744C76.0496 18.5517 69.0883 11.6426 60.501 11.6426C51.9138 11.6426 44.9525 18.5517 44.9525 27.0744C44.9525 35.5972 51.9138 42.5063 60.501 42.5063Z" fill="#FF6584"/>
<path d="M108.107 26.2703C103.992 21.986 99.2131 18.0776 93.5556 16.0123C91.9797 15.4346 90.3457 15.027 88.6818 14.7967C88.6684 14.7949 88.6558 14.7976 88.6425 14.7965C88.6154 14.7896 88.5879 14.7843 88.5602 14.7805C86.2331 14.4863 83.8711 14.6278 81.5965 15.1978C80.4842 15.4748 79.3991 15.85 78.3541 16.3188C77.3055 16.8266 76.2894 17.3981 75.3117 18.0301C73.2422 19.2596 70.9637 20.1032 68.5885 20.5194C67.3963 20.7325 66.1887 20.8501 64.9775 20.8712C63.9266 20.8921 62.9355 20.9283 61.9398 21.3052C60.8762 21.7021 59.9207 22.3403 59.1498 23.1689C58.3788 23.9974 57.8136 24.9933 57.4993 26.0771C57.4751 26.1736 57.4824 26.2753 57.5202 26.3674C57.5579 26.4595 57.6242 26.5374 57.7095 26.5897C57.9788 26.7811 58.2414 26.9984 58.5244 27.1689C58.7761 27.2833 59.045 27.3561 59.3204 27.3844C59.7703 27.4786 60.2208 27.5701 60.6719 27.6588C62.3336 27.9856 64.0023 28.2749 65.6778 28.5266C69.0682 29.036 72.4769 29.3948 75.9039 29.6031C82.7692 30.0158 89.6581 29.8103 96.486 28.9891C100.323 28.5278 104.135 27.8736 107.905 27.0289C107.982 27.0067 108.051 26.9654 108.106 26.9088C108.162 26.8523 108.202 26.7825 108.222 26.7061C108.242 26.6298 108.242 26.5496 108.222 26.4732C108.202 26.3968 108.162 26.3269 108.107 26.2703Z" fill="#E6E6E6"/>
<path d="M61.239 36.588C59.6631 36.0103 58.0291 35.6027 56.3652 35.3724C56.3518 35.3706 56.3391 35.3733 56.3258 35.3722C56.2988 35.3653 56.2713 35.3599 56.2436 35.3562C53.9165 35.062 51.5544 35.2035 49.2799 35.7735C48.1676 36.0505 47.0825 36.4257 46.0375 36.8945C44.9888 37.4023 43.9727 37.9738 42.995 38.6058C40.9255 39.8353 38.647 40.6789 36.2718 41.0951C35.0796 41.3081 33.8721 41.4258 32.6609 41.4469C31.61 41.4678 30.6189 41.504 29.6231 41.8809C28.5595 42.2778 27.6041 42.916 26.8331 43.7445C26.0621 44.5731 25.497 45.569 25.1827 46.6528C25.1584 46.7493 25.1657 46.8509 25.2035 46.9431C25.2413 47.0352 25.3076 47.113 25.3928 47.1653C25.6622 47.3568 25.9248 47.574 26.2077 47.7446C26.4595 47.859 26.7284 47.9318 27.0038 47.9601C27.4537 48.0543 27.9042 48.1458 28.3552 48.2345C30.017 48.5613 31.6856 48.8505 33.3612 49.1023C36.7516 49.6117 40.1603 49.9705 43.5873 50.1788C50.4526 50.5915 57.3415 50.386 64.1694 49.5648C68.0068 49.1035 71.8181 48.4493 75.5886 47.6045C75.665 47.5824 75.7342 47.541 75.7897 47.4845C75.8452 47.4279 75.8851 47.3581 75.9054 47.2818C75.9257 47.2055 75.9258 47.1252 75.9056 47.0489C75.8855 46.9725 75.8458 46.9026 75.7904 46.8459C71.6755 42.5617 66.8965 38.6533 61.239 36.588Z" fill="#E6E6E6"/>
<path opacity="0.15" d="M141.338 144.075C141.266 144.391 141.212 144.71 141.176 145.032C140.689 143.504 140.618 141.876 140.971 140.313C141.025 140.074 141.066 139.832 141.098 139.588C141.582 141.036 141.664 142.585 141.338 144.075Z" fill="black"/>
<path opacity="0.15" d="M141.535 132.814C140.761 132.921 139.975 132.924 139.199 132.825C138.996 132.445 138.82 132.05 138.674 131.645C139.538 132.224 140.511 132.621 141.535 132.814Z" fill="black"/>
<path opacity="0.15" d="M139.137 129.096C138.851 129.822 138.661 130.581 138.572 131.356C138.333 130.618 138.192 129.853 138.153 129.079L138.146 128.955L138.27 128.978C138.557 129.032 138.846 129.071 139.137 129.096Z" fill="black"/>
</svg>
