<svg width="348" height="348" viewBox="0 0 348 348" fill="none" xmlns="http://www.w3.org/2000/svg">
<g clip-path="url(#clip0_8_3781)">
<path d="M334.214 0.000482013H229.752C224.711 0.000176236 219.82 2.12417 215.883 6.0233C211.946 9.92244 209.197 15.3647 208.088 21.4553L155.307 311.428C154.731 314.591 154.721 317.872 155.277 321.04C155.833 324.208 156.942 327.187 158.526 329.769C160.11 332.35 162.131 334.471 164.447 335.982C166.763 337.494 169.317 338.36 171.932 338.52L279.32 345.073C285.07 345.423 290.727 343.171 295.235 338.736C299.743 334.3 302.794 327.985 303.819 320.968L333.762 115.955L335.989 116.743L341.72 77.8849L339.427 77.1751L347.785 19.9481C348.143 17.4969 348.06 14.978 347.542 12.571C347.024 10.164 346.084 7.92821 344.788 6.02298C343.493 4.11776 341.873 2.59005 340.046 1.54877C338.219 0.507487 336.229 -0.0217233 334.218 -0.00113025L334.214 0.000482013Z" fill="#3F3D56"/>
<path d="M243.503 6.25146H231.31C227.809 6.25151 224.412 7.73485 221.685 10.4552C218.957 13.1756 217.063 16.9695 216.317 21.2069L165.652 308.814C165.36 310.47 165.36 312.184 165.653 313.84C165.945 315.496 166.522 317.054 167.345 318.408C168.168 319.762 169.218 320.88 170.422 321.686C171.626 322.492 172.956 322.966 174.321 323.076L281.36 331.766C284.38 332.011 287.367 330.87 289.751 328.562C292.135 326.253 293.75 322.938 294.286 319.249L337.518 21.9797C337.798 20.0556 337.734 18.079 337.329 16.1892C336.925 14.2995 336.191 12.5426 335.178 11.0427C334.166 9.5428 332.9 8.33634 331.47 7.50847C330.04 6.68061 328.481 6.25151 326.903 6.25146H315.336C314.216 6.25142 313.128 6.70852 312.239 7.55198C311.35 8.39544 310.711 9.57823 310.42 10.9172C310.163 12.0997 309.598 13.1443 308.813 13.889C308.028 14.6337 307.067 15.0371 306.078 15.0367H251.164C249.229 15.0366 247.364 14.1318 245.944 12.5031C244.524 10.8744 243.652 8.64175 243.503 6.25146Z" fill="white"/>
<path d="M302.674 207.313C302.882 207.322 303.086 207.238 303.249 207.076C303.411 206.915 303.521 206.686 303.558 206.432L327.229 44.6245C327.252 44.4707 327.247 44.3127 327.216 44.1612C327.185 44.0098 327.128 43.8685 327.048 43.7469C326.97 43.6264 326.87 43.5287 326.758 43.461C326.645 43.3932 326.522 43.357 326.397 43.3549L218.703 41.7794H218.693C218.498 41.7815 218.309 41.8657 218.157 42.0183C218.005 42.1709 217.899 42.3828 217.858 42.6193L189.952 199.175C189.925 199.328 189.925 199.486 189.952 199.639C189.978 199.792 190.031 199.936 190.107 200.061C190.182 200.186 190.278 200.288 190.389 200.361C190.499 200.434 190.621 200.476 190.746 200.484L302.674 207.313Z" fill="#E6E6E6"/>
<path d="M209.218 217.775C209.12 217.775 209.025 217.816 208.948 217.892C208.872 217.967 208.818 218.072 208.796 218.191L207.787 223.544C207.773 223.62 207.772 223.698 207.785 223.774C207.797 223.85 207.823 223.922 207.86 223.985C207.897 224.047 207.945 224.099 208 224.137C208.055 224.175 208.115 224.197 208.178 224.203L265.151 229.218C265.256 229.226 265.361 229.187 265.445 229.107C265.529 229.027 265.587 228.913 265.608 228.784L266.578 222.59C266.59 222.515 266.588 222.438 266.574 222.363C266.559 222.289 266.532 222.219 266.495 222.158C266.457 222.098 266.409 222.048 266.354 222.013C266.299 221.977 266.239 221.956 266.178 221.951L209.245 217.776L209.218 217.775Z" fill="#E6E6E6"/>
<path d="M278.437 249.103C278.54 249.113 278.642 249.078 278.726 249.003C278.809 248.929 278.869 248.82 278.893 248.696L280.128 242.489C280.143 242.413 280.145 242.333 280.132 242.257C280.12 242.18 280.095 242.107 280.058 242.044C280.02 241.98 279.972 241.928 279.917 241.89C279.862 241.852 279.8 241.829 279.737 241.824L206.979 235.521C206.881 235.511 206.782 235.544 206.701 235.614C206.619 235.684 206.56 235.787 206.533 235.904L205.25 241.268C205.231 241.345 205.227 241.426 205.237 241.505C205.247 241.584 205.271 241.659 205.308 241.725C205.344 241.791 205.392 241.846 205.448 241.886C205.504 241.926 205.566 241.95 205.631 241.956L278.437 249.103Z" fill="#E6E6E6"/>
<path d="M274.53 268.999C274.632 269.009 274.735 268.974 274.818 268.899C274.902 268.824 274.961 268.715 274.986 268.591L276.221 262.384C276.236 262.308 276.237 262.229 276.225 262.152C276.213 262.075 276.187 262.003 276.15 261.939C276.113 261.876 276.065 261.823 276.01 261.785C275.954 261.747 275.893 261.725 275.83 261.719L203.072 255.417C202.973 255.407 202.875 255.44 202.793 255.51C202.712 255.579 202.652 255.682 202.625 255.8L201.342 261.164C201.324 261.24 201.32 261.321 201.33 261.4C201.34 261.479 201.364 261.554 201.401 261.62C201.437 261.686 201.485 261.741 201.541 261.781C201.597 261.821 201.659 261.846 201.723 261.852L274.53 268.999Z" fill="#E6E6E6"/>
<path d="M148.381 339.04C148.381 343.541 115.124 344.02 74.1907 347.188C33.2942 350.354 0 343.541 0 339.04C0 334.54 33.4496 325.486 74.1907 330.892C115.124 336.324 148.381 334.54 148.381 339.04Z" fill="#E6E6E6"/>
<path d="M241.02 303.01C241.124 303.024 241.228 302.99 241.313 302.915C241.398 302.841 241.458 302.73 241.482 302.605L244.092 289.672C244.108 289.597 244.11 289.518 244.098 289.441C244.086 289.365 244.061 289.292 244.025 289.229C243.988 289.165 243.941 289.112 243.886 289.074C243.831 289.035 243.771 289.012 243.708 289.005L199.027 284.351C198.923 284.342 198.82 284.379 198.735 284.456C198.651 284.533 198.591 284.644 198.567 284.77L196.34 297.182C196.327 297.256 196.327 297.334 196.339 297.408C196.352 297.483 196.377 297.554 196.413 297.615C196.449 297.677 196.496 297.728 196.549 297.766C196.603 297.804 196.662 297.827 196.724 297.834L241.02 303.01Z" fill="#50ACFE"/>
<path d="M60.6106 250.31C61.1732 249.833 61.6444 249.208 61.9911 248.481C62.3377 247.753 62.5512 246.941 62.6167 246.1C62.6822 245.259 62.598 244.411 62.3701 243.614C62.1421 242.818 61.776 242.094 61.2974 241.492L63.1065 191.475L53.8961 192.755L54.4314 241.679C53.6676 242.741 53.245 244.113 53.2438 245.536C53.2426 246.958 53.6628 248.331 54.4248 249.395C55.1867 250.459 56.2375 251.14 57.3778 251.308C58.518 251.477 59.6685 251.121 60.611 250.308L60.6106 250.31Z" fill="#A0616A"/>
<path d="M77.4133 334.979L82.6556 336.12L87.8367 311.62L80.9681 309.935L77.4133 334.979Z" fill="#A0616A"/>
<path d="M91.9113 344.35L75.4359 340.762L76.5549 332.879L86.6648 335.08C88.353 335.448 89.8542 336.631 90.8381 338.37C91.822 340.108 92.208 342.259 91.9112 344.35L91.9113 344.35Z" fill="#2F2E41"/>
<path d="M63.0249 338.228H68.3475L70.8794 312.801H63.024L63.0249 338.228Z" fill="#A0616A"/>
<path d="M78.6106 344.351L61.8825 344.352L61.8822 336.347L72.1471 336.346C73.8613 336.346 75.5052 337.189 76.7173 338.691C77.9295 340.192 78.6105 342.228 78.6106 344.351Z" fill="#2F2E41"/>
<path d="M85.2309 329.114C85.1479 329.114 85.065 329.108 84.9826 329.096L78.7179 328.458C78.4327 328.416 78.1572 328.303 77.9083 328.126C77.6594 327.948 77.4422 327.71 77.27 327.426C77.0977 327.141 76.9739 326.816 76.9062 326.47C76.8384 326.125 76.8281 325.766 76.8758 325.415L83.0949 287.408L79.1876 261.881C79.1558 261.673 79.0645 261.487 78.9305 261.357C78.7965 261.226 78.6289 261.16 78.4587 261.171C78.2884 261.181 78.1269 261.267 78.0041 261.414C77.8812 261.56 77.8052 261.757 77.7901 261.967L72.0329 326.83C71.9792 327.513 71.7133 328.144 71.2913 328.589C70.8693 329.034 70.3242 329.259 69.771 329.216L63.8688 328.944C63.3516 328.898 62.8658 328.62 62.503 328.161C62.1402 327.702 61.9255 327.095 61.8995 326.454L62.371 248.072L92.97 243.335L95.1077 284.223L95.0991 284.267L87.2884 327.109C87.176 327.68 86.9122 328.188 86.5392 328.552C86.1662 328.915 85.7056 329.113 85.2309 329.114Z" fill="#2F2E41"/>
<path d="M72.4619 159.065C78.3509 159.065 83.1249 153.152 83.1249 145.858C83.1249 138.564 78.3509 132.651 72.4619 132.651C66.5728 132.651 61.7988 138.564 61.7988 145.858C61.7988 153.152 66.5728 159.065 72.4619 159.065Z" fill="#A0616A"/>
<path d="M82.5088 254.037C80.8411 254.049 79.2055 253.47 77.7953 252.367C72.629 248.368 66.7633 249.957 63.726 251.261C63.4245 251.391 63.1031 251.436 62.7858 251.391C62.4685 251.346 62.1634 251.213 61.8935 251.002C61.6266 250.794 61.4012 250.515 61.234 250.184C61.0667 249.853 60.9621 249.48 60.9279 249.092L55.4052 187.994C54.4796 177.757 59.4583 168.132 67.2434 165.109C67.5361 164.995 67.8334 164.888 68.1356 164.786C70.5582 163.973 73.0954 163.827 75.5685 164.358C78.0416 164.89 80.3906 166.087 82.4502 167.864C84.5482 169.66 86.3028 172.004 87.5905 174.731C88.8782 177.458 89.6676 180.502 89.9032 183.647L94.5533 245.155C94.585 245.553 94.5416 245.955 94.4266 246.329C94.3115 246.703 94.128 247.038 93.8904 247.31C92.2597 249.176 87.5284 254.036 82.5088 254.037Z" fill="#50ACFE"/>
<path d="M65.6897 201.096L53.2297 199.399C52.8751 199.351 52.5331 199.208 52.227 198.982C51.9209 198.755 51.6578 198.449 51.4557 198.085C51.2536 197.721 51.1172 197.307 51.0559 196.872C50.9946 196.437 51.0097 195.99 51.1002 195.563L54.2721 180.59C54.3655 179.467 54.6376 178.379 55.0726 177.388C55.5077 176.397 56.097 175.522 56.8065 174.815C57.5161 174.107 58.3318 173.581 59.2066 173.266C60.0814 172.951 60.9978 172.854 61.903 172.981C62.8082 173.108 63.6841 173.455 64.4802 174.003C65.2763 174.552 65.9767 175.29 66.541 176.176C67.1054 177.061 67.5224 178.077 67.768 179.163C68.0136 180.25 68.0829 181.386 67.972 182.506L68.443 197.925C68.4565 198.366 68.393 198.806 68.2568 199.215C68.1206 199.623 67.9149 199.99 67.6538 200.291C67.3927 200.592 67.0822 200.82 66.7436 200.959C66.4049 201.098 66.0461 201.145 65.6914 201.097L65.6897 201.096Z" fill="#50ACFE"/>
<path d="M94.5026 248.169C95.0144 247.611 95.4212 246.921 95.6944 246.147C95.9675 245.373 96.1004 244.534 96.0836 243.69C96.0668 242.846 95.9007 242.017 95.5971 241.26C95.2935 240.504 94.8597 239.84 94.3263 239.314L91.2556 189.391L82.2302 191.908L87.5267 240.525C86.8718 241.693 86.5858 243.118 86.7229 244.53C86.86 245.942 87.4108 247.243 88.2708 248.186C89.1307 249.128 90.2401 249.647 91.3884 249.644C92.5368 249.641 93.6442 249.116 94.5009 248.169H94.5026Z" fill="#A0616A"/>
<path d="M78.7704 197.958C78.5092 197.657 78.3035 197.29 78.1673 196.882C78.0311 196.473 77.9676 196.033 77.9812 195.592L78.4522 180.173C78.3506 179.059 78.4273 177.931 78.6777 176.853C78.9281 175.776 79.3474 174.77 79.9116 173.893C80.4759 173.016 81.174 172.286 81.9662 171.743C82.7584 171.201 83.6292 170.857 84.5287 170.731C85.4283 170.605 86.339 170.7 87.209 171.01C88.0789 171.32 88.891 171.84 89.5989 172.538C90.3068 173.237 90.8966 174.102 91.3347 175.083C91.7728 176.064 92.0505 177.143 92.1521 178.257L95.324 193.23C95.4145 193.658 95.4296 194.104 95.3683 194.539C95.3069 194.975 95.1706 195.388 94.9685 195.752C94.7664 196.116 94.5033 196.422 94.1972 196.649C93.8911 196.876 93.5491 197.018 93.1945 197.066L80.7345 198.763C80.3798 198.812 80.0209 198.765 79.6822 198.626C79.3436 198.486 79.0331 198.258 78.7722 197.957L78.7704 197.958Z" fill="#50ACFE"/>
<path d="M71.8276 159.562C71.6376 159.562 71.4482 159.535 71.2632 159.481L71.209 159.465C61.834 157.69 59.7619 150.963 59.3073 148.154C58.8367 145.246 59.3724 142.439 60.5837 141.349C59.9234 138.768 60.0293 136.477 60.8993 134.54C62.4188 131.163 65.7101 130.023 66.1525 129.881C68.7825 127.478 71.9292 129.082 72.5019 129.408C77.5896 127.077 79.535 129.017 79.8858 129.45C82.1598 129.956 83.5461 131.044 84.0063 132.685C84.8706 135.767 82.1373 139.6 82.0205 139.762L81.9597 139.846L77.8874 140.086C77.501 140.109 77.1228 140.232 76.7773 140.448C76.4318 140.663 76.1267 140.966 75.8819 141.337C75.637 141.708 75.4579 142.139 75.3561 142.601C75.2542 143.063 75.232 143.547 75.2908 144.021C75.401 144.632 75.5401 145.234 75.7076 145.825C76.4022 148.517 76.9232 150.816 76.252 151.691C76.0997 151.86 75.9121 151.972 75.7105 152.016C75.509 152.059 75.3017 152.031 75.1124 151.935C74.4755 151.725 74.0435 151.769 73.8282 152.067C73.4939 152.529 73.5959 153.699 74.1156 155.361C74.2786 155.886 74.3225 156.457 74.2425 157.011C74.1624 157.565 73.9615 158.082 73.6614 158.505C73.4355 158.835 73.1545 159.1 72.8378 159.283C72.521 159.465 72.1761 159.561 71.8267 159.562H71.8276Z" fill="#2F2E41"/>
</g>
<defs>
<clipPath id="clip0_8_3781">
<rect width="348" height="348" fill="white"/>
</clipPath>
</defs>
</svg>
