<svg width="229" height="190" viewBox="0 0 229 190" fill="none" xmlns="http://www.w3.org/2000/svg">
<g clip-path="url(#clip0_8_3358)">
<path d="M57.1443 146.221H221.502C222.443 146.221 223.375 146.036 224.245 145.677C225.115 145.318 225.905 144.792 226.57 144.129C227.236 143.465 227.764 142.678 228.124 141.811C228.484 140.945 228.67 140.016 228.67 139.077V44.3506C228.671 43.7175 228.586 43.0871 228.418 42.4766C228.006 40.9632 227.105 39.6272 225.855 38.6749C224.605 37.7225 223.076 37.2067 221.502 37.207H157.306C155.808 39.7212 154.886 42.5337 154.603 45.444C153.807 53.9049 158.674 61.7269 163.029 69.0352C167.385 76.3434 171.539 84.8405 169.232 93.0248C167.672 98.5447 163.446 102.54 158.202 104.934C153.163 107.156 147.62 107.998 142.145 107.371C138.857 106.957 135.619 106.22 132.476 105.171C128.356 103.837 124.331 102.108 120.313 100.359C120.309 100.359 120.309 100.359 120.306 100.356C120.237 100.326 120.164 100.294 120.094 100.264C116.985 98.9103 113.879 97.5534 110.726 96.3578C107.033 94.9181 103.199 93.8651 99.2862 93.2159C93.3415 92.2871 87.3471 92.623 82.0435 95.3105C73.399 99.6875 68.7661 109.146 65.1411 118.111C61.4797 127.175 58.1984 136.542 57.1443 146.221Z" fill="#50ACFE"/>
<path d="M0.330444 109.983V139.077C0.330394 140.016 0.515745 140.945 0.875922 141.811C1.2361 142.678 1.76405 143.465 2.42961 144.129C3.09518 144.792 3.88532 145.318 4.75494 145.677C5.62455 146.036 6.5566 146.221 7.49785 146.221H34.8192C35.2918 141.831 34.8952 137.457 33.1604 133.376C29.3801 124.477 20.2333 119.215 11.5128 114.989C7.84812 113.214 4.12067 111.501 0.330444 109.983Z" fill="#50ACFE"/>
<path d="M28.9627 139.502V139.502C28.9627 141.397 29.7178 143.214 31.062 144.554C32.4061 145.893 34.2292 146.646 36.1301 146.646H63.4515C63.924 142.256 63.5275 137.882 61.7927 133.801C60.9039 131.709 58.8278 129.392 56.1226 127.051C45.5092 117.866 28.9627 125.493 28.9627 139.502Z" fill="#50ACFE"/>
<path d="M0 139.077V44.3506C0.00225299 42.3693 0.792924 40.4699 2.19855 39.0689C3.60418 37.668 5.50997 36.8799 7.49783 36.8777H221.502C223.49 36.8799 225.396 37.668 226.801 39.0689C228.207 40.4699 228.998 42.3693 229 44.3506V139.077C228.998 141.059 228.207 142.958 226.801 144.359C225.396 145.76 223.49 146.548 221.502 146.55H7.49783C5.50995 146.548 3.60413 145.76 2.1985 144.359C0.792871 142.958 0.00221887 141.059 0 139.077ZM7.49783 37.5364C5.68518 37.5384 3.94736 38.257 2.66562 39.5344C1.38389 40.8119 0.662919 42.5439 0.660895 44.3506V139.077C0.662886 140.884 1.38383 142.616 2.66557 143.894C3.94731 145.171 5.68516 145.89 7.49783 145.892H221.502C223.315 145.89 225.053 145.171 226.334 143.894C227.616 142.616 228.337 140.884 228.339 139.077V44.3506C228.337 42.5439 227.616 40.8119 226.334 39.5344C225.053 38.257 223.315 37.5384 221.502 37.5364H7.49783Z" fill="#3F3D56"/>
<path d="M70.8182 145.987H80.5366C82.1988 140.409 84.5978 134.497 86.7887 129.108C90.992 118.777 96.3618 107.877 106.384 102.833C110.664 100.679 115.329 99.8373 120.094 99.8831C126.677 99.9453 133.445 101.706 139.64 104.04C142.175 104.993 144.686 106.04 147.188 107.111C156.612 111.147 165.934 115.543 176.069 116.732C188.894 118.234 203.972 112.515 207.475 100.197C210.148 90.7666 205.333 80.9757 200.284 72.5531C195.235 64.1305 189.591 55.1187 190.513 45.367C190.516 45.3343 190.519 45.2983 190.526 45.2656C190.873 41.763 192.971 39.2458 195.902 37.632H183.141C182.972 46.7289 188.253 54.7586 193.004 62.6869C198.054 71.1062 202.868 80.9004 200.195 90.3312C196.692 102.646 167.688 88.2105 154.863 86.7047C151.241 86.2825 156.995 87.785 153.541 86.7047C148.125 85.0123 147.525 100.535 142.254 98.2562C138.973 96.8356 135.688 95.4247 132.361 94.171C130.983 93.6505 129.575 93.1628 128.151 92.711C128.147 92.711 128.147 92.711 128.144 92.7077C118.581 89.6896 108.122 88.5144 99.2862 92.878C99.2267 92.9074 99.1639 92.9369 99.1045 92.9663C89.082 98.0074 83.7122 108.908 79.5089 119.239C76.0359 127.779 72.5299 136.979 70.8182 145.987Z" fill="#3F3D56"/>
<path d="M70.9238 78.0917H7.71198C7.19403 78.0917 6.69728 78.2967 6.33103 78.6618C5.96479 79.0268 5.75903 79.5219 5.75903 80.0381C5.75903 80.5544 5.96479 81.0494 6.33103 81.4145C6.69728 81.7795 7.19403 81.9846 7.71198 81.9846H70.9238C71.4417 81.9846 71.9385 81.7795 72.3047 81.4145C72.671 81.0494 72.8767 80.5544 72.8767 80.0381C72.8767 79.5219 72.671 79.0268 72.3047 78.6618C71.9385 78.2967 71.4417 78.0917 70.9238 78.0917Z" fill="#3F3D56"/>
<path d="M27.3549 67.1777H7.75593C7.23798 67.1777 6.74124 67.3828 6.37499 67.7478C6.00874 68.1129 5.80298 68.6079 5.80298 69.1242C5.80298 69.6404 6.00874 70.1355 6.37499 70.5005C6.74124 70.8656 7.23798 71.0706 7.75593 71.0706H27.3549C27.8729 71.0706 28.3696 70.8656 28.7359 70.5005C29.1021 70.1355 29.3079 69.6404 29.3079 69.1242C29.3079 68.6079 29.1021 68.1129 28.7359 67.7478C28.3696 67.3828 27.8729 67.1777 27.3549 67.1777H27.3549Z" fill="#3F3D56"/>
<path d="M102.934 181.116L98.9274 181.083L97.1542 165.323L103.067 165.373L102.934 181.116Z" fill="#FFB6B6"/>
<path d="M90.1016 187.466C90.098 187.939 90.283 188.394 90.6159 188.732C90.9488 189.069 91.4024 189.262 91.8773 189.266L99.8423 189.333L101.237 186.516L101.749 189.347L104.754 189.374L103.995 179.276L102.95 179.206L98.6848 178.913L97.3088 178.822L97.2847 181.679L90.8864 186.004C90.6467 186.166 90.4501 186.384 90.3134 186.638C90.1767 186.893 90.104 187.177 90.1016 187.466Z" fill="#2F2E41"/>
<path d="M143.579 181.116L139.572 181.083L137.799 165.323L143.712 165.373L143.579 181.116Z" fill="#FFB6B6"/>
<path d="M130.747 187.466C130.743 187.939 130.928 188.394 131.261 188.732C131.594 189.069 132.047 189.262 132.522 189.266L140.487 189.333L141.882 186.516L142.394 189.347L145.399 189.374L144.64 179.276L143.595 179.206L139.33 178.913L137.954 178.822L137.93 181.679L131.531 186.004C131.292 186.166 131.095 186.384 130.958 186.638C130.822 186.893 130.749 187.177 130.747 187.466Z" fill="#2F2E41"/>
<path d="M97.9916 54.9089L116.022 41.0793C116.784 40.4911 117.283 39.6278 117.412 38.6758C117.542 37.7238 117.29 36.7593 116.712 35.9905C116.413 35.5928 116.036 35.2599 115.604 35.0122C115.171 34.7645 114.693 34.6072 114.198 34.5498C113.702 34.4924 113.2 34.5361 112.723 34.6783C112.245 34.8205 111.801 35.0582 111.418 35.3769L93.1315 50.3148L81.6358 58.9248C81.0669 58.5951 80.41 58.448 79.7543 58.5035C79.0986 58.5589 78.476 58.8141 77.9709 59.2345C77.4658 59.6549 77.1029 60.2201 76.9313 60.8533C76.7598 61.4864 76.7879 62.1569 77.012 62.7735C77.2361 63.3902 77.6452 63.9231 78.1837 64.3C78.7223 64.6768 79.3642 64.8793 80.0222 64.8799C80.6802 64.8805 81.3225 64.6792 81.8617 64.3033C82.4009 63.9274 82.811 63.3952 83.0362 62.7789L97.9916 54.9089Z" fill="#FFB6B6"/>
<path d="M112.687 58.0882L111.892 75.7788L138.885 79.0342C136.761 71.9257 133.278 62.0524 134.874 57.1053L112.687 58.0882Z" fill="#A0616A"/>
<path d="M128.031 25.6564H119.716L116.145 31.7463L114.443 31.6527C111.127 32.9256 109.806 34.243 107.976 37.7529L101.544 43.1354L106.501 49.0636C109.925 48.5046 111.159 45.8559 110.072 40.9914C110.072 40.9914 106.323 47.5036 111.724 50.7074C111.724 50.7074 110.76 56.7438 111.724 56.6789C112.687 56.614 114.906 55.3855 112.687 56.614C110.468 57.8425 110.848 57.8955 110.921 58.2936C112.119 64.8723 113.11 69.8125 113.11 69.8125L136.572 72.1179C136.572 72.1179 135.22 57.9764 135.294 57.1723C135.367 56.3683 134.874 58.3339 135.367 56.3683C135.86 54.4027 136.6 55.1398 135.86 54.4027C135.121 53.6656 140.944 53.0308 138.671 49.4885L146.272 47.5125L142.023 37.4491C142.023 34.0513 136.548 31.2968 133.139 31.2968H132.702L128.031 25.6564Z" fill="#E6E6E6"/>
<path d="M136.879 69.4458C127.7 72.5926 119.437 71.9017 112.449 65.8604C112.449 65.8604 110.483 73.1059 108.492 72.1179C106.501 71.1299 107.485 73.8946 106.938 74.9083C106.358 75.9845 107.032 77.7999 105.114 78.4171C103.197 79.0342 103.917 80.8481 103.296 82.183C98.9523 91.5248 93.9913 104.748 90.6398 121.52C87.1958 138.754 95.5965 167.629 95.5965 167.629L103.527 166.97L105.51 129.424L114.578 113.554C114.578 113.554 119.033 110.969 116.237 109.658C113.441 108.346 115.314 106.721 117.351 107.04C119.389 107.358 121.702 96.819 121.702 96.819C118.797 104.095 136.902 168.287 136.902 168.287L144.503 167.629L140.207 78.0462L136.879 69.4458Z" fill="#2F2E41"/>
<path d="M132.965 10.3673C133.867 12.6047 136.409 17.0045 136.754 19.4047L136.599 19.2528C136.303 19.7563 135.967 20.2351 135.594 20.6847C134.925 19.9848 134.118 19.4313 133.222 19.0596C133.711 20.0591 133.994 21.1461 134.055 22.2565C132.4 23.6932 128.172 22.8264 126.06 23.5921C122.661 24.8212 119.052 25.2588 115.488 25.6222C114.224 25.752 112.808 25.8307 111.921 25.0859C111.035 24.341 111.563 22.9616 111.086 21.9183C107.69 14.4867 110.824 11.8055 113.487 8.4357C114.073 7.69414 114.071 6.58751 114.784 5.87997C115.774 4.89924 117.29 4.59759 118.689 4.35595C118.326 4.37502 117.963 4.30057 117.637 4.13977C117.311 3.97897 117.032 3.73723 116.827 3.43781C116.647 3.13615 116.554 2.79082 116.559 2.4399C116.563 2.08897 116.665 1.7461 116.853 1.44909C117.353 0.622709 118.392 0.142155 119.395 0.0221047C120.382 -0.0447488 121.375 0.0402608 122.336 0.274151C122.96 0.355825 123.563 0.548029 124.118 0.841669C124.38 0.980936 124.593 1.19657 124.729 1.45974C124.864 1.72291 124.916 2.02107 124.877 2.31437C124.793 2.58521 124.65 2.83376 124.456 3.04149C124.263 3.24921 124.025 3.41074 123.76 3.51403C123.357 3.68413 122.932 3.79997 122.498 3.8585C124.492 3.6005 126.519 3.954 128.307 4.87197C130.548 6.06349 132.061 8.13116 132.965 10.3673Z" fill="#2F2E41"/>
<path d="M120.83 22.9107C125.254 22.9107 128.841 19.3359 128.841 14.926C128.841 10.5162 125.254 6.94128 120.83 6.94128C116.405 6.94128 112.818 10.5162 112.818 14.926C112.818 19.3359 116.405 22.9107 120.83 22.9107Z" fill="#FFB6B6"/>
<path d="M128.539 10.6447C128.074 12.0439 126.747 12.4948 125.52 12.776C125.133 12.8659 124.744 12.9496 124.351 13.0241C124.206 12.8435 124.052 12.6665 123.891 12.4992C123.222 11.7993 122.414 11.2458 121.519 10.8741C121.906 11.6637 122.164 12.5101 122.281 13.381C121.54 13.4883 120.794 13.5759 120.044 13.644C119.409 13.7786 118.747 13.6651 118.194 13.327C117.641 12.9888 117.24 12.4519 117.073 11.8272C116.39 12.9399 115.583 13.9878 114.479 14.4298C113.848 14.6558 113.16 14.6744 112.518 14.4828C111.875 14.2912 111.311 13.8995 110.908 13.365C110.247 12.5611 109.879 11.4812 109.614 10.4389C109.3 9.19981 109.126 7.77248 109.742 6.98633C110.234 6.35008 111.084 6.33866 111.869 6.39511C113.6 6.52746 115.313 6.83695 116.98 7.3187L117.121 7.63504C116.835 5.91917 117.456 4.26826 118.606 3.68114C119.382 3.28858 120.315 3.35441 121.222 3.43404C122.387 3.48584 123.538 3.70768 124.638 4.09247C125.9 4.57636 126.982 5.43712 127.734 6.55697C128.539 7.77506 128.939 9.43636 128.539 10.6447Z" fill="#2F2E41"/>
<path d="M117.118 3.18186C117.197 3.1586 116.992 3.18847 117.063 3.19037C117.028 3.18833 116.993 3.18344 116.958 3.17574C116.952 3.17457 116.872 3.1492 116.925 3.16783C116.806 3.13237 116.7 3.06334 116.62 2.96906C116.432 2.73712 116.284 2.47524 116.183 2.19441C116.056 1.82329 115.851 1.48321 115.583 1.19648C115.506 1.12019 115.413 1.06288 115.311 1.02922C115.208 0.995549 115.099 0.986468 114.992 1.00271C114.885 1.01896 114.784 1.06007 114.696 1.12271C114.608 1.18535 114.536 1.26775 114.487 1.36323C114.331 1.70722 114.473 2.13106 114.584 2.46891C114.699 2.81995 114.87 3.15022 115.09 3.447C115.46 3.93232 115.963 4.30009 116.538 4.5055C117.204 4.74655 117.93 4.76724 118.609 4.56448C118.698 4.5274 118.775 4.46514 118.83 4.38527C118.885 4.30541 118.915 4.21138 118.917 4.11466C118.919 4.01793 118.893 3.92268 118.842 3.8405C118.791 3.75833 118.717 3.69278 118.629 3.65185L117.497 3.19009C117.437 3.16396 117.373 3.14979 117.308 3.14837C117.243 3.14696 117.178 3.15833 117.118 3.18184C117.057 3.20536 117.002 3.24055 116.955 3.28541C116.907 3.33028 116.87 3.38394 116.844 3.44332C116.817 3.5027 116.803 3.56665 116.802 3.63151C116.8 3.69637 116.812 3.76088 116.835 3.82134C116.859 3.88181 116.894 3.93705 116.939 3.98392C116.984 4.03078 117.038 4.06835 117.098 4.09448L118.23 4.55622L118.249 3.6436C118.108 3.68423 117.963 3.709 117.816 3.71744C117.66 3.73307 117.502 3.72642 117.347 3.69771C117.199 3.67835 117.053 3.64297 116.913 3.59218C116.823 3.55943 116.734 3.52215 116.648 3.48049C116.617 3.46534 116.586 3.44961 116.555 3.4333C116.557 3.43448 116.426 3.35805 116.484 3.39396C116.337 3.30072 116.2 3.19409 116.073 3.07544C116.029 3.03337 115.987 2.98772 115.95 2.93897C115.886 2.86001 115.826 2.77738 115.771 2.69147C115.66 2.50956 115.571 2.31451 115.508 2.11083C115.479 2.02523 115.455 1.93819 115.436 1.85007C115.43 1.8017 115.421 1.75376 115.409 1.70658C115.367 1.59417 115.417 1.77222 115.369 1.82093L115.16 1.97416C115.121 1.98579 115.08 1.98849 115.039 1.98205C114.999 1.97561 114.961 1.96019 114.927 1.93695C114.902 1.90228 114.908 1.90803 114.943 1.9542C114.985 2.00853 115.022 2.06543 115.057 2.12454C115.131 2.26369 115.199 2.40654 115.259 2.55253C115.384 2.86303 115.541 3.15938 115.729 3.43654C115.913 3.71689 116.181 3.93222 116.495 4.05184C116.809 4.17146 117.152 4.18927 117.477 4.10273C117.599 4.05439 117.697 3.96025 117.749 3.84061C117.802 3.72097 117.806 3.58544 117.759 3.46325C117.709 3.34283 117.615 3.24627 117.495 3.19382C117.376 3.14136 117.24 3.13708 117.118 3.18186Z" fill="#2F2E41"/>
<path d="M104.623 89.9338C117.705 89.9338 128.311 79.3635 128.311 66.3245C128.311 53.2854 117.705 42.7152 104.623 42.7152C91.54 42.7152 80.9345 53.2854 80.9345 66.3245C80.9345 79.3635 91.54 89.9338 104.623 89.9338Z" fill="white"/>
<path d="M104.623 90.2632C99.8722 90.2632 95.2285 88.8592 91.2786 86.2288C87.3288 83.5984 84.2503 79.8597 82.4323 75.4855C80.6144 71.1113 80.1388 66.298 81.0655 61.6544C81.9923 57.0107 84.2798 52.7453 87.6388 49.3974C90.9979 46.0495 95.2776 43.7696 99.9367 42.8459C104.596 41.9222 109.425 42.3962 113.814 44.208C118.203 46.0199 121.954 49.0881 124.593 53.0248C127.232 56.9615 128.641 61.5898 128.641 66.3244C128.634 72.6711 126.101 78.7559 121.598 83.2437C117.096 87.7315 110.991 90.256 104.623 90.2632ZM104.623 43.0446C100.003 43.0446 95.4869 44.4099 91.6458 46.968C87.8046 49.526 84.8108 53.1618 83.0429 57.4157C81.275 61.6696 80.8125 66.3504 81.7137 70.8663C82.615 75.3821 84.8396 79.5302 88.1063 82.786C91.3729 86.0417 95.5349 88.2589 100.066 89.1572C104.597 90.0554 109.293 89.5944 113.561 87.8323C117.829 86.0703 121.477 83.0864 124.044 79.258C126.61 75.4297 127.98 70.9287 127.98 66.3244C127.973 60.1523 125.51 54.235 121.131 49.8707C116.752 45.5064 110.815 43.0515 104.623 43.0446Z" fill="#3F3D56"/>
<path d="M101.391 78.612C100.982 78.612 100.579 78.517 100.213 78.3347C99.8469 78.1523 99.5286 77.8875 99.2833 77.5613L92.8208 68.9732C92.6132 68.6973 92.4622 68.3833 92.3763 68.0492C92.2904 67.7152 92.2714 67.3675 92.3204 67.0261C92.3693 66.6847 92.4853 66.3562 92.6616 66.0595C92.8379 65.7627 93.0711 65.5035 93.3479 65.2966C93.6248 65.0897 93.9398 64.9391 94.275 64.8536C94.6102 64.768 94.959 64.749 95.3015 64.7978C95.6441 64.8466 95.9736 64.9622 96.2713 65.1379C96.5691 65.3136 96.8292 65.546 97.0368 65.8219L101.265 71.4401L112.124 55.206C112.316 54.919 112.562 54.6725 112.85 54.4806C113.138 54.2887 113.46 54.1551 113.799 54.0875C114.139 54.0199 114.488 54.0195 114.828 54.0864C115.167 54.1534 115.49 54.2863 115.778 54.4776C116.066 54.6689 116.313 54.9148 116.506 55.2014C116.698 55.488 116.832 55.8095 116.9 56.1477C116.968 56.4859 116.968 56.8341 116.901 57.1724C116.834 57.5107 116.701 57.8326 116.509 58.1195L103.584 77.4425C103.35 77.7919 103.035 78.0804 102.667 78.2838C102.298 78.4871 101.886 78.5994 101.464 78.6111C101.44 78.6116 101.416 78.612 101.391 78.612Z" fill="#50ACFE"/>
<path d="M78.5301 189.608C78.5299 189.66 78.54 189.711 78.5597 189.758C78.5794 189.806 78.6084 189.849 78.6449 189.886C78.6815 189.922 78.7249 189.951 78.7727 189.971C78.8205 189.99 78.8717 190 78.9233 190H162.622C162.727 190 162.827 189.959 162.9 189.885C162.974 189.812 163.016 189.712 163.016 189.608C163.016 189.504 162.974 189.404 162.9 189.331C162.827 189.257 162.727 189.216 162.622 189.216H78.9233C78.8717 189.216 78.8205 189.226 78.7727 189.246C78.7249 189.265 78.6815 189.294 78.6449 189.331C78.6084 189.367 78.5794 189.41 78.5597 189.458C78.54 189.506 78.5299 189.557 78.5301 189.608Z" fill="#CCCCCC"/>
<path d="M152.637 67.132L144.894 45.8102C144.563 44.9078 143.89 44.1712 143.019 43.7594C142.148 43.3475 141.15 43.2935 140.239 43.6088C139.768 43.772 139.335 44.029 138.967 44.3643C138.599 44.6995 138.303 45.106 138.098 45.5589C137.893 46.0118 137.782 46.5016 137.773 46.9985C137.764 47.4954 137.856 47.989 138.044 48.4491L146.769 70.3515L151.508 83.8829C151.02 84.323 150.68 84.9021 150.534 85.5416C150.387 86.181 150.442 86.8498 150.691 87.4571C150.939 88.0644 151.369 88.5807 151.922 88.936C152.476 89.2912 153.125 89.4681 153.783 89.4427C154.44 89.4172 155.074 89.1906 155.598 88.7937C156.122 88.3968 156.51 87.8487 156.71 87.2241C156.911 86.5994 156.914 85.9284 156.718 85.3021C156.523 84.6759 156.138 84.1249 155.618 83.7238L152.637 67.132Z" fill="#FFB6B6"/>
<path d="M140.984 36.3146L147.263 47.5124C147.263 47.5124 132.793 52.45 132.758 51.6279C132.723 50.8059 133.477 39.398 133.477 39.398L140.984 36.3146Z" fill="#E6E6E6"/>
</g>
<defs>
<clipPath id="clip0_8_3358">
<rect width="229" height="190" fill="white"/>
</clipPath>
</defs>
</svg>
